<svg aria-hidden="true" style="position: absolute; width: 0; height: 0; overflow: hidden;" version="1.1" xmlns="http://www.w3.org/2000/svg" xmlns:xlink="http://www.w3.org/1999/xlink">
<defs>
<symbol id="icon-antenna-1" viewBox="0 0 32 32">
<path fill="#2e2f42" style="fill: var(--color1, #2e2f42)" d="M30.773 22.098l-8.443-8.505 0.937-4.615c0.242 0.094 0.499 0.144 0.758 0.146h0.006c1.192 0.014 2.17-0.941 2.184-2.133s-0.941-2.17-2.133-2.184c-1.192-0.014-2.17 0.941-2.184 2.133-0.003 0.255 0.039 0.509 0.125 0.749l-4.96 0.605-8.091-8.133c-0.099-0.101-0.235-0.159-0.377-0.16-0.14 0.001-0.274 0.056-0.373 0.155l-1.513 1.504c-0.208 0.208-0.208 0.546 0 0.754l0.814 0.826c-3.153 5.798-2.129 12.978 2.519 17.663 0.043 0.041 0.092 0.074 0.146 0.098-0.034 0.18-0.051 0.364-0.052 0.547v6.187h-6.4c-1.472 0.002-2.665 1.195-2.667 2.667v1.067c0 0.295 0.239 0.533 0.533 0.533h24.533c0.295 0 0.533-0.239 0.533-0.533v-1.067c-0.002-1.472-1.195-2.665-2.667-2.667h-6.4v-2.742c1.003 0.21 2.024 0.317 3.049 0.32 2.458-0.003 4.877-0.615 7.040-1.783l0.818 0.823c0.099 0.101 0.235 0.159 0.377 0.16 0.14-0.001 0.274-0.056 0.373-0.155l1.513-1.504c0.208-0.208 0.208-0.546 0-0.754zM23.28 6.233c0.418-0.415 1.093-0.414 1.509 0.004s0.414 1.093-0.004 1.508c-0.2 0.199-0.47 0.31-0.752 0.31h-0.003c-0.589-0.003-1.064-0.483-1.061-1.072 0.002-0.282 0.115-0.552 0.314-0.751h-0.002zM22.024 9.738l-0.598 2.946-1.175-1.182 1.774-1.763zM21.419 8.836l-1.92 1.909-1.485-1.493 3.405-0.415zM24.004 28.8c0.884 0 1.6 0.716 1.6 1.6v0.533h-23.467v-0.533c0-0.884 0.716-1.6 1.6-1.6h20.267zM16.537 26.667v1.067h-5.333v-1.067h5.333zM11.204 25.6v-4.053c0-1.294 1.196-2.347 2.667-2.347s2.667 1.053 2.667 2.347v4.053h-5.333zM17.604 23.904v-2.357c0-1.882-1.675-3.413-3.733-3.413-1.331-0.020-2.576 0.657-3.281 1.786-4.058-4.274-4.971-10.645-2.279-15.887l18.602 18.708c-2.872 1.461-6.165 1.873-9.309 1.163zM28.893 23.22l-21.057-21.181 0.755-0.752 7.935 7.98c0.004 0 0.006 0.007 0.010 0.010l13.115 13.191-0.757 0.752z"></path>
<path fill="#4d5ae5" style="fill: var(--color2, #4d5ae5)" d="M13.876 20.267h-0.005c-0.884-0.001-1.601 0.714-1.602 1.598s0.714 1.601 1.598 1.602h0.005c0.884 0.001 1.601-0.714 1.602-1.598s-0.714-1.601-1.598-1.602zM14.249 22.245c-0.1 0.1-0.236 0.156-0.378 0.155-0.295-0.002-0.532-0.242-0.531-0.536 0.001-0.141 0.057-0.276 0.157-0.375s0.233-0.154 0.373-0.155c0.295 0.002 0.532 0.242 0.531 0.536-0.001 0.141-0.057 0.276-0.157 0.375h0.005z"></path>
</symbol>
<symbol id="icon-Icon-2" viewBox="0 0 75 32">
<path fill="#f4f4fd" style="fill: var(--color3, #f4f4fd)" d="M1.143 0h73.143c0.631 0 1.143 0.512 1.143 1.143v29.714c0 0.631-0.512 1.143-1.143 1.143h-73.143c-0.631 0-1.143-0.512-1.143-1.143v-29.714c0-0.631 0.512-1.143 1.143-1.143z"></path>
<path fill="#2e2f42" style="fill: var(--color1, #2e2f42)" d="M46.455 15.601c-0.001-4.83-3.917-8.745-8.747-8.744s-8.745 3.917-8.744 8.747c0.001 3.805 2.461 7.172 6.085 8.329 0.035 0.011 0.071 0.016 0.107 0.016 0.069-0 0.137-0.019 0.196-0.054 0.077-0.046 0.135-0.118 0.162-0.204l2.209-7c0.604-0.003 1.091-0.495 1.087-1.099s-0.495-1.091-1.099-1.088c-0.162 0.001-0.323 0.038-0.469 0.109l-2.918-2.918c-0.145-0.14-0.375-0.136-0.515 0.009-0.137 0.141-0.137 0.365 0 0.506l2.916 2.919c-0.224 0.457-0.096 1.008 0.306 1.319l-2.104 6.67c-4.159-1.532-6.288-6.145-4.756-10.304s6.145-6.288 10.304-4.756c4.159 1.532 6.288 6.145 4.756 10.304-0.749 2.032-2.286 3.675-4.264 4.556l-0.227-1.071c-0.041-0.197-0.235-0.323-0.432-0.281-0.062 0.013-0.12 0.042-0.167 0.085l-2.193 1.957c-0.151 0.134-0.164 0.364-0.030 0.514 0.044 0.049 0.099 0.085 0.162 0.105l2.799 0.893c0.191 0.061 0.397-0.044 0.458-0.235 0.019-0.061 0.023-0.125 0.010-0.187l-0.223-1.051c3.237-1.365 5.338-4.538 5.331-8.051zM37.71 15.236c0.201 0 0.365 0.163 0.365 0.364s-0.163 0.364-0.365 0.364-0.364-0.163-0.364-0.364c0-0.201 0.163-0.364 0.364-0.364zM38.91 23.73l1.248-1.113 0.345 1.623-1.593-0.51z"></path>
<path fill="#4d5ae5" style="fill: var(--color2, #4d5ae5)" d="M37.345 8.677v0.729c0 0.201 0.163 0.364 0.364 0.364s0.365-0.163 0.365-0.364v-0.729c0-0.201-0.163-0.364-0.365-0.364s-0.364 0.163-0.364 0.364z"></path>
<path fill="#4d5ae5" style="fill: var(--color2, #4d5ae5)" d="M30.786 15.236c-0.201 0-0.364 0.163-0.364 0.364s0.163 0.364 0.364 0.364h0.729c0.201 0 0.364-0.163 0.364-0.364s-0.163-0.364-0.364-0.364h-0.729z"></path>
<path fill="#4d5ae5" style="fill: var(--color2, #4d5ae5)" d="M44.633 15.965c0.201 0 0.365-0.163 0.365-0.364s-0.163-0.364-0.365-0.364h-0.729c-0.201 0-0.364 0.163-0.364 0.364s0.163 0.364 0.364 0.364h0.729z"></path>
</symbol>
<symbol id="icon-Feature-3" viewBox="0 0 38 32">
<path fill="#f4f4fd" style="fill: var(--color3, #f4f4fd)" d="M0.571 0h36.571c0.316 0 0.571 0.256 0.571 0.571v14.857c0 0.316-0.256 0.571-0.571 0.571h-36.571c-0.316 0-0.571-0.256-0.571-0.571v-14.857c0-0.316 0.256-0.571 0.571-0.571z"></path>
<path fill="#4d5ae5" style="fill: var(--color2, #4d5ae5)" d="M18.55 7.704h0.305v1.371h-0.305v-1.371z"></path>
<path fill="#4d5ae5" style="fill: var(--color2, #4d5ae5)" d="M19.769 8.313h0.305v0.761h-0.305v-0.761z"></path>
<path fill="#4d5ae5" style="fill: var(--color2, #4d5ae5)" d="M17.332 8.77h0.305v0.305h-0.305v-0.305z"></path>
<path fill="#4d5ae5" style="fill: var(--color2, #4d5ae5)" d="M16.418 8.618h0.305v0.457h-0.305v-0.457z"></path>
<path fill="#2e2f42" style="fill: var(--color1, #2e2f42)" d="M14.743 11.512h7.311c0.252 0 0.457-0.205 0.457-0.457v-0.609c0-0.252-0.205-0.457-0.457-0.457h-0.152v-3.798l0.865-0.819c0.201 0.099 0.444 0.039 0.575-0.143s0.113-0.431-0.044-0.591c-0.157-0.16-0.406-0.184-0.59-0.056s-0.25 0.369-0.155 0.572l-0.652 0.618v-0.351c0-0.252-0.205-0.457-0.457-0.457h-6.092c-0.252 0-0.457 0.205-0.457 0.457v4.569h-0.152c-0.252 0-0.457 0.205-0.457 0.457v0.609c0 0.252 0.205 0.457 0.457 0.457zM22.967 4.81c0.084 0 0.152 0.068 0.152 0.152s-0.068 0.152-0.152 0.152c-0.084 0-0.152-0.068-0.152-0.152s0.068-0.152 0.152-0.152zM15.2 5.42c0-0.084 0.068-0.152 0.152-0.152h6.092c0.084 0 0.152 0.068 0.152 0.152v0.64l-0.305 0.289v-0.624c0-0.084-0.068-0.152-0.152-0.152h-5.483c-0.084 0-0.152 0.068-0.152 0.152v3.808c0 0.084 0.068 0.152 0.152 0.152h5.483c0.084 0 0.152-0.068 0.152-0.152v-2.764l0.305-0.289v3.51h-6.397v-4.569zM16.57 7.4c-0.206-0.001-0.387 0.137-0.442 0.335s0.030 0.409 0.207 0.514c0.177 0.105 0.403 0.079 0.551-0.065l0.529 0.266c0.061 0.031 0.136 0.016 0.182-0.035l1.125-1.266 1.106 0.829c0.059 0.044 0.142 0.040 0.196-0.011l0.962-0.911v2.323h-5.178v-3.503h5.178v0.76l-1.078 1.020-1.116-0.836c-0.063-0.047-0.153-0.039-0.205 0.021l-1.141 1.284-0.427-0.213c0.003-0.018 0.005-0.037 0.006-0.055 0-0.252-0.205-0.457-0.457-0.457zM16.723 7.856c0 0.084-0.068 0.152-0.152 0.152s-0.152-0.068-0.152-0.152 0.068-0.152 0.152-0.152c0.084 0 0.152 0.068 0.152 0.152zM17.636 10.293h1.523v0.152c0 0.084-0.068 0.152-0.152 0.152h-1.218c-0.084 0-0.152-0.068-0.152-0.152v-0.152zM14.59 10.446c0-0.084 0.068-0.152 0.152-0.152h2.589v0.152c0 0.252 0.205 0.457 0.457 0.457h1.218c0.252 0 0.457-0.205 0.457-0.457v-0.152h2.589c0.084 0 0.152 0.068 0.152 0.152v0.609c0 0.084-0.068 0.152-0.152 0.152h-7.311c-0.084 0-0.152-0.068-0.152-0.152v-0.609z"></path>
<path fill="#2e2f42" style="fill: var(--color1, #2e2f42)" d="M0.797 19.857h-0.434l0.003-0.278h0.431c0.126 0 0.231-0.027 0.315-0.082s0.15-0.133 0.193-0.236c0.044-0.102 0.066-0.224 0.066-0.366v-0.11c0-0.11-0.013-0.207-0.038-0.292s-0.060-0.156-0.109-0.213c-0.047-0.058-0.106-0.101-0.176-0.131s-0.148-0.045-0.239-0.045h-0.455v-0.279h0.455c0.135 0 0.258 0.023 0.37 0.068 0.112 0.045 0.208 0.109 0.289 0.194s0.145 0.186 0.188 0.304 0.066 0.25 0.066 0.396v0.107c0 0.146-0.022 0.278-0.066 0.396s-0.107 0.219-0.188 0.304c-0.082 0.084-0.179 0.148-0.293 0.194s-0.239 0.067-0.378 0.067zM0.557 17.826v2.031h-0.35v-2.031h0.35zM2.457 18.348v1.509h-0.338v-1.509h0.338zM2.097 17.951c0-0.051 0.017-0.093 0.050-0.127s0.082-0.052 0.142-0.052c0.060 0 0.107 0.017 0.141 0.052s0.052 0.076 0.052 0.127c0 0.050-0.017 0.092-0.052 0.126s-0.081 0.050-0.141 0.050c-0.060 0-0.108-0.017-0.142-0.050s-0.050-0.075-0.050-0.126zM3.242 17.714v2.143h-0.338v-2.143h0.338zM4.027 18.348v1.509h-0.338v-1.509h0.338zM3.668 17.951c0-0.051 0.017-0.093 0.050-0.127s0.082-0.052 0.142-0.052c0.060 0 0.107 0.017 0.141 0.052s0.052 0.076 0.052 0.127c0 0.050-0.017 0.092-0.052 0.126s-0.081 0.050-0.141 0.050c-0.060 0-0.108-0.017-0.142-0.050s-0.050-0.075-0.050-0.126zM5.42 18.348h0.306v1.468c0 0.136-0.029 0.251-0.087 0.346s-0.138 0.167-0.241 0.216c-0.103 0.050-0.223 0.075-0.359 0.075-0.058 0-0.122-0.008-0.193-0.025s-0.138-0.044-0.204-0.081c-0.065-0.036-0.12-0.084-0.163-0.144l0.158-0.198c0.054 0.064 0.113 0.111 0.179 0.141s0.133 0.045 0.205 0.045c0.077 0 0.143-0.014 0.197-0.043 0.055-0.028 0.097-0.069 0.127-0.124s0.045-0.122 0.045-0.201v-1.133l0.031-0.342zM4.394 19.119v-0.029c0-0.114 0.014-0.219 0.042-0.313s0.068-0.176 0.12-0.244c0.052-0.069 0.115-0.121 0.19-0.158s0.159-0.056 0.253-0.056c0.098 0 0.181 0.018 0.25 0.053s0.128 0.086 0.174 0.152c0.046 0.065 0.083 0.143 0.109 0.234s0.047 0.191 0.060 0.301v0.093c-0.012 0.108-0.033 0.206-0.061 0.296s-0.067 0.167-0.114 0.232c-0.047 0.065-0.106 0.115-0.176 0.151s-0.15 0.053-0.244 0.053c-0.092 0-0.175-0.019-0.25-0.057s-0.137-0.092-0.19-0.16c-0.052-0.069-0.092-0.15-0.12-0.243-0.028-0.094-0.042-0.196-0.042-0.306zM4.731 19.090v0.029c0 0.069 0.006 0.133 0.020 0.193s0.035 0.112 0.063 0.158c0.029 0.045 0.065 0.080 0.109 0.106s0.097 0.038 0.158 0.038c0.079 0 0.144-0.017 0.194-0.050s0.090-0.079 0.117-0.135c0.028-0.058 0.047-0.122 0.059-0.192v-0.253c-0.006-0.055-0.017-0.106-0.035-0.153s-0.040-0.089-0.068-0.124c-0.029-0.036-0.065-0.064-0.109-0.084-0.044-0.021-0.095-0.031-0.155-0.031s-0.113 0.013-0.158 0.039c-0.045 0.026-0.081 0.062-0.11 0.107s-0.049 0.099-0.063 0.159c-0.014 0.061-0.021 0.125-0.021 0.194zM6.797 19.885c-0.112 0-0.213-0.018-0.303-0.054s-0.166-0.089-0.229-0.155c-0.062-0.066-0.11-0.144-0.144-0.233s-0.050-0.186-0.050-0.289v-0.056c0-0.118 0.017-0.225 0.052-0.321s0.082-0.178 0.144-0.245c0.061-0.069 0.134-0.121 0.218-0.158s0.174-0.054 0.272-0.054c0.108 0 0.202 0.018 0.283 0.054s0.148 0.087 0.201 0.153c0.054 0.065 0.094 0.143 0.12 0.233s0.040 0.19 0.040 0.299v0.144h-1.166v-0.241h0.834v-0.026c-0.002-0.060-0.014-0.117-0.036-0.17s-0.054-0.096-0.099-0.128-0.104-0.049-0.179-0.049c-0.056 0-0.106 0.012-0.149 0.036s-0.079 0.057-0.107 0.102c-0.029 0.045-0.051 0.099-0.067 0.162s-0.022 0.133-0.022 0.211v0.056c0 0.066 0.009 0.127 0.027 0.184s0.046 0.105 0.081 0.147 0.078 0.075 0.128 0.099c0.050 0.023 0.107 0.035 0.172 0.035 0.081 0 0.153-0.016 0.216-0.049s0.118-0.079 0.165-0.138l0.177 0.172c-0.033 0.047-0.075 0.093-0.127 0.137-0.052 0.043-0.116 0.078-0.191 0.105s-0.161 0.040-0.26 0.040zM8.053 18.67v1.187h-0.336v-1.509h0.317l0.020 0.322zM7.994 19.047l-0.109-0.001c0.001-0.107 0.016-0.205 0.045-0.294s0.071-0.166 0.123-0.23c0.053-0.064 0.116-0.114 0.19-0.148s0.155-0.053 0.246-0.053c0.073 0 0.138 0.010 0.197 0.031s0.11 0.052 0.152 0.096c0.043 0.045 0.075 0.103 0.098 0.174 0.022 0.071 0.034 0.158 0.034 0.261v0.975h-0.338v-0.977c0-0.073-0.011-0.13-0.032-0.172s-0.051-0.073-0.091-0.091c-0.039-0.019-0.088-0.028-0.146-0.028s-0.109 0.012-0.155 0.036c-0.046 0.024-0.084 0.057-0.116 0.099s-0.054 0.090-0.071 0.145-0.025 0.113-0.025 0.176zM9.984 19.617c0.055 0 0.104-0.011 0.148-0.032 0.045-0.022 0.080-0.053 0.107-0.092s0.043-0.084 0.046-0.135h0.317c-0.002 0.098-0.031 0.186-0.086 0.266s-0.13 0.144-0.222 0.191c-0.092 0.047-0.194 0.070-0.306 0.070-0.115 0-0.216-0.019-0.301-0.059s-0.157-0.095-0.213-0.165-0.1-0.15-0.128-0.241c-0.028-0.091-0.042-0.189-0.042-0.293v-0.049c0-0.104 0.014-0.202 0.042-0.293s0.072-0.173 0.128-0.243c0.057-0.070 0.128-0.124 0.213-0.163s0.186-0.060 0.3-0.060c0.121 0 0.227 0.024 0.318 0.073s0.163 0.114 0.215 0.2c0.053 0.085 0.080 0.183 0.082 0.296h-0.317c-0.003-0.056-0.017-0.106-0.042-0.151s-0.059-0.082-0.103-0.109c-0.044-0.027-0.096-0.040-0.158-0.040-0.068 0-0.124 0.014-0.169 0.042s-0.079 0.064-0.105 0.112c-0.025 0.046-0.043 0.099-0.054 0.158s-0.015 0.118-0.015 0.18v0.049c0 0.062 0.005 0.123 0.015 0.181s0.028 0.111 0.053 0.158c0.026 0.046 0.061 0.082 0.106 0.11s0.101 0.040 0.17 0.040zM11.583 19.885c-0.112 0-0.213-0.018-0.303-0.054s-0.166-0.089-0.229-0.155c-0.062-0.066-0.11-0.144-0.144-0.233s-0.050-0.186-0.050-0.289v-0.056c0-0.118 0.017-0.225 0.052-0.321s0.082-0.178 0.144-0.245c0.061-0.069 0.134-0.121 0.218-0.158s0.174-0.054 0.272-0.054c0.108 0 0.202 0.018 0.283 0.054s0.148 0.087 0.201 0.153c0.054 0.065 0.094 0.143 0.12 0.233s0.040 0.19 0.040 0.299v0.144h-1.166v-0.241h0.834v-0.026c-0.002-0.060-0.014-0.117-0.036-0.17s-0.054-0.096-0.099-0.128-0.104-0.049-0.179-0.049c-0.056 0-0.106 0.012-0.149 0.036s-0.079 0.057-0.107 0.102c-0.029 0.045-0.051 0.099-0.067 0.162s-0.022 0.133-0.022 0.211v0.056c0 0.066 0.009 0.127 0.027 0.184s0.046 0.105 0.081 0.147 0.078 0.075 0.128 0.099c0.050 0.023 0.107 0.035 0.172 0.035 0.081 0 0.153-0.016 0.216-0.049s0.118-0.079 0.165-0.138l0.177 0.172c-0.033 0.047-0.075 0.093-0.127 0.137-0.052 0.043-0.116 0.078-0.191 0.105s-0.161 0.040-0.259 0.040z"></path>
<path fill="#434455" style="fill: var(--color4, #434455)" d="M0.189 22.518h0.538c0.122 0 0.225 0.019 0.309 0.056s0.149 0.092 0.193 0.165c0.045 0.072 0.067 0.161 0.067 0.267 0 0.074-0.015 0.142-0.046 0.204s-0.073 0.113-0.129 0.156c-0.056 0.042-0.123 0.074-0.201 0.095l-0.060 0.023h-0.506l-0.002-0.175h0.382c0.077 0 0.142-0.013 0.193-0.040s0.090-0.064 0.116-0.111 0.039-0.097 0.039-0.153c0-0.062-0.012-0.117-0.037-0.164s-0.063-0.083-0.116-0.108c-0.052-0.026-0.119-0.039-0.202-0.039h-0.323v1.449h-0.215v-1.625zM1.138 24.143l-0.395-0.737 0.224-0.001 0.401 0.724v0.013h-0.23zM2.113 24.165c-0.084 0-0.16-0.014-0.229-0.042s-0.126-0.070-0.175-0.122c-0.048-0.052-0.086-0.114-0.112-0.185s-0.039-0.15-0.039-0.234v-0.047c0-0.098 0.014-0.186 0.044-0.262s0.068-0.143 0.118-0.196 0.106-0.094 0.17-0.122c0.063-0.028 0.129-0.041 0.196-0.041 0.086 0 0.161 0.015 0.223 0.045s0.115 0.071 0.155 0.125c0.040 0.053 0.070 0.115 0.089 0.188s0.029 0.15 0.029 0.234v0.093h-0.902v-0.169h0.695v-0.016c-0.003-0.054-0.014-0.106-0.034-0.156s-0.048-0.092-0.089-0.125-0.097-0.049-0.167-0.049c-0.047 0-0.090 0.010-0.129 0.030s-0.073 0.048-0.102 0.087c-0.028 0.039-0.050 0.086-0.066 0.142s-0.023 0.12-0.023 0.193v0.047c0 0.057 0.008 0.111 0.023 0.162s0.040 0.094 0.070 0.132c0.031 0.038 0.069 0.068 0.113 0.089s0.095 0.032 0.152 0.032c0.073 0 0.135-0.015 0.185-0.045s0.095-0.070 0.133-0.119l0.125 0.099c-0.026 0.039-0.059 0.077-0.099 0.113s-0.090 0.065-0.148 0.087c-0.058 0.022-0.127 0.033-0.207 0.033zM3.572 23.823c0-0.030-0.007-0.057-0.020-0.083s-0.039-0.050-0.079-0.070c-0.039-0.022-0.099-0.040-0.179-0.056-0.067-0.014-0.128-0.031-0.182-0.050s-0.099-0.043-0.137-0.070c-0.037-0.028-0.066-0.060-0.086-0.097s-0.030-0.081-0.030-0.131c0-0.048 0.010-0.093 0.031-0.135s0.052-0.080 0.090-0.113c0.039-0.033 0.087-0.058 0.142-0.077s0.116-0.028 0.184-0.028c0.097 0 0.179 0.017 0.248 0.051s0.121 0.080 0.157 0.137c0.036 0.057 0.055 0.119 0.055 0.189h-0.207c0-0.033-0.010-0.066-0.030-0.097s-0.048-0.058-0.086-0.079c-0.037-0.021-0.083-0.031-0.137-0.031-0.057 0-0.104 0.009-0.139 0.027s-0.061 0.039-0.077 0.066c-0.016 0.027-0.023 0.055-0.023 0.085 0 0.022 0.004 0.042 0.011 0.060s0.022 0.033 0.042 0.048c0.020 0.014 0.048 0.028 0.085 0.040s0.083 0.025 0.139 0.038c0.099 0.022 0.18 0.049 0.244 0.080s0.112 0.069 0.143 0.115 0.047 0.1 0.047 0.165c0 0.053-0.011 0.101-0.034 0.145s-0.053 0.082-0.095 0.114c-0.041 0.031-0.090 0.056-0.147 0.074s-0.12 0.026-0.191 0.026c-0.106 0-0.196-0.019-0.27-0.057s-0.129-0.087-0.167-0.147c-0.038-0.060-0.057-0.124-0.057-0.191h0.208c0.003 0.056 0.019 0.102 0.049 0.135s0.066 0.056 0.109 0.070c0.043 0.013 0.086 0.020 0.128 0.020 0.057 0 0.104-0.007 0.142-0.022s0.068-0.035 0.088-0.061 0.030-0.056 0.030-0.089zM4.597 24.165c-0.084 0-0.16-0.014-0.229-0.042s-0.126-0.070-0.175-0.122c-0.048-0.052-0.086-0.114-0.112-0.185s-0.039-0.15-0.039-0.234v-0.047c0-0.098 0.014-0.186 0.044-0.262s0.068-0.143 0.118-0.196 0.106-0.094 0.17-0.122c0.063-0.028 0.129-0.041 0.196-0.041 0.086 0 0.161 0.015 0.223 0.045s0.115 0.071 0.155 0.125c0.040 0.053 0.070 0.115 0.089 0.188s0.029 0.15 0.029 0.234v0.093h-0.902v-0.169h0.695v-0.016c-0.003-0.054-0.014-0.106-0.034-0.156s-0.048-0.092-0.089-0.125-0.097-0.049-0.167-0.049c-0.047 0-0.090 0.010-0.129 0.030s-0.073 0.048-0.102 0.087c-0.028 0.039-0.050 0.086-0.066 0.142s-0.023 0.12-0.023 0.193v0.047c0 0.057 0.008 0.111 0.023 0.162s0.040 0.094 0.070 0.132c0.031 0.038 0.069 0.068 0.113 0.089s0.095 0.032 0.152 0.032c0.073 0 0.135-0.015 0.185-0.045s0.095-0.070 0.133-0.119l0.125 0.099c-0.026 0.039-0.059 0.077-0.099 0.113s-0.090 0.065-0.148 0.087c-0.058 0.022-0.127 0.033-0.207 0.033zM6.066 23.936v-0.622c0-0.048-0.010-0.089-0.029-0.124s-0.047-0.063-0.085-0.083c-0.038-0.019-0.085-0.029-0.141-0.029-0.052 0-0.098 0.009-0.137 0.027s-0.069 0.041-0.091 0.070c-0.022 0.029-0.032 0.060-0.032 0.094h-0.206c0-0.043 0.011-0.086 0.034-0.128s0.054-0.081 0.096-0.115c0.042-0.035 0.093-0.063 0.152-0.083s0.126-0.031 0.199-0.031c0.088 0 0.165 0.015 0.232 0.045s0.121 0.075 0.158 0.135c0.039 0.060 0.058 0.134 0.058 0.224v0.562c0 0.040 0.003 0.083 0.010 0.128s0.018 0.084 0.032 0.117v0.018h-0.215c-0.010-0.024-0.019-0.055-0.025-0.095s-0.009-0.077-0.009-0.112zM6.101 23.411l0.002 0.145h-0.209c-0.059 0-0.111 0.005-0.157 0.014s-0.085 0.023-0.116 0.041-0.055 0.042-0.071 0.070c-0.016 0.028-0.025 0.060-0.025 0.097s0.009 0.073 0.026 0.104c0.017 0.031 0.043 0.056 0.077 0.075s0.078 0.027 0.128 0.027c0.063 0 0.119-0.013 0.167-0.040s0.087-0.059 0.115-0.098c0.029-0.039 0.045-0.076 0.047-0.113l0.088 0.099c-0.005 0.031-0.019 0.066-0.042 0.104s-0.054 0.074-0.093 0.109c-0.038 0.034-0.083 0.063-0.136 0.086s-0.111 0.033-0.176 0.033c-0.082 0-0.154-0.016-0.215-0.048s-0.109-0.075-0.143-0.128c-0.034-0.054-0.050-0.115-0.050-0.182 0-0.065 0.013-0.122 0.038-0.171s0.062-0.091 0.109-0.124c0.048-0.033 0.105-0.059 0.172-0.076s0.142-0.026 0.224-0.026h0.24zM6.849 23.125v1.018h-0.206v-1.208h0.201l0.006 0.19zM7.226 22.929l-0.001 0.192c-0.017-0.004-0.034-0.006-0.049-0.007s-0.032-0.002-0.051-0.002c-0.048 0-0.090 0.007-0.126 0.022s-0.067 0.036-0.093 0.062-0.045 0.059-0.060 0.096c-0.014 0.036-0.023 0.077-0.028 0.121l-0.058 0.033c0-0.073 0.007-0.141 0.021-0.205s0.038-0.121 0.068-0.17c0.030-0.050 0.069-0.089 0.116-0.116s0.104-0.042 0.17-0.042c0.015 0 0.032 0.002 0.051 0.006s0.033 0.006 0.040 0.010zM7.924 23.996c0.049 0 0.095-0.010 0.136-0.030s0.076-0.048 0.103-0.083c0.027-0.036 0.042-0.076 0.046-0.122h0.196c-0.004 0.071-0.028 0.138-0.073 0.2s-0.102 0.11-0.173 0.148c-0.071 0.037-0.15 0.056-0.236 0.056-0.091 0-0.17-0.016-0.238-0.048s-0.123-0.076-0.167-0.132c-0.044-0.056-0.077-0.12-0.099-0.192s-0.032-0.15-0.032-0.231v-0.047c0-0.081 0.011-0.158 0.032-0.23s0.055-0.137 0.099-0.193c0.045-0.056 0.1-0.1 0.167-0.132s0.147-0.048 0.238-0.048c0.095 0 0.177 0.019 0.248 0.058s0.126 0.090 0.166 0.156c0.041 0.065 0.063 0.14 0.067 0.223h-0.196c-0.004-0.050-0.018-0.095-0.042-0.135s-0.057-0.072-0.098-0.096c-0.041-0.025-0.089-0.037-0.144-0.037-0.063 0-0.116 0.013-0.16 0.038s-0.076 0.058-0.102 0.1c-0.025 0.042-0.042 0.088-0.054 0.139s-0.016 0.102-0.016 0.155v0.047c0 0.053 0.005 0.105 0.016 0.156s0.028 0.098 0.052 0.14c0.025 0.042 0.059 0.075 0.102 0.1s0.097 0.037 0.161 0.037zM8.889 22.429v1.714h-0.206v-1.714h0.206zM8.84 23.493l-0.086-0.003c0.001-0.083 0.013-0.159 0.037-0.229s0.057-0.132 0.1-0.184 0.095-0.092 0.154-0.121c0.060-0.029 0.127-0.043 0.2-0.043 0.059 0 0.113 0.008 0.161 0.024s0.088 0.041 0.122 0.076c0.034 0.035 0.060 0.080 0.078 0.136s0.027 0.122 0.027 0.202v0.791h-0.208v-0.794c0-0.063-0.009-0.114-0.028-0.152s-0.046-0.067-0.081-0.084c-0.036-0.018-0.080-0.027-0.132-0.027s-0.098 0.011-0.141 0.032c-0.042 0.022-0.078 0.051-0.108 0.089s-0.053 0.081-0.070 0.131c-0.016 0.048-0.025 0.1-0.025 0.154zM11.312 23.936v-0.622c0-0.048-0.010-0.089-0.029-0.124s-0.047-0.063-0.085-0.083c-0.038-0.019-0.085-0.029-0.141-0.029-0.052 0-0.098 0.009-0.137 0.027s-0.069 0.041-0.091 0.070c-0.022 0.029-0.032 0.060-0.032 0.094h-0.206c0-0.043 0.011-0.086 0.034-0.128s0.054-0.081 0.096-0.115c0.042-0.035 0.093-0.063 0.152-0.083s0.126-0.031 0.199-0.031c0.088 0 0.165 0.015 0.232 0.045s0.121 0.075 0.158 0.135c0.039 0.060 0.058 0.134 0.058 0.224v0.562c0 0.040 0.003 0.083 0.010 0.128s0.018 0.084 0.032 0.117v0.018h-0.215c-0.010-0.024-0.019-0.055-0.025-0.095s-0.009-0.077-0.009-0.112zM11.348 23.411l0.002 0.145h-0.209c-0.059 0-0.111 0.005-0.157 0.014s-0.085 0.023-0.116 0.041-0.055 0.042-0.071 0.070c-0.016 0.028-0.025 0.060-0.025 0.097s0.009 0.073 0.026 0.104c0.017 0.031 0.043 0.056 0.077 0.075s0.078 0.027 0.128 0.027c0.063 0 0.119-0.013 0.167-0.040s0.087-0.059 0.115-0.098c0.029-0.039 0.045-0.076 0.047-0.113l0.088 0.099c-0.005 0.031-0.019 0.066-0.042 0.104s-0.054 0.074-0.093 0.109c-0.038 0.034-0.083 0.063-0.136 0.086s-0.111 0.033-0.176 0.033c-0.082 0-0.154-0.016-0.215-0.048s-0.109-0.075-0.143-0.128c-0.034-0.054-0.050-0.115-0.050-0.182 0-0.065 0.013-0.122 0.038-0.171s0.062-0.091 0.109-0.124c0.048-0.033 0.105-0.059 0.172-0.076s0.142-0.026 0.224-0.026h0.24zM12.096 23.193v0.95h-0.206v-1.208h0.195l0.011 0.258zM12.046 23.493l-0.086-0.003c0.001-0.083 0.013-0.159 0.037-0.229s0.057-0.132 0.1-0.184 0.095-0.092 0.154-0.121c0.060-0.029 0.127-0.043 0.2-0.043 0.060 0 0.113 0.008 0.161 0.024s0.088 0.041 0.122 0.076c0.034 0.035 0.060 0.080 0.078 0.136s0.027 0.122 0.027 0.202v0.791h-0.208v-0.794c0-0.063-0.009-0.114-0.028-0.152s-0.046-0.067-0.081-0.084c-0.036-0.018-0.080-0.027-0.132-0.027s-0.098 0.011-0.141 0.032c-0.042 0.022-0.078 0.051-0.108 0.089s-0.053 0.081-0.070 0.131c-0.016 0.048-0.025 0.1-0.025 0.154zM13.959 23.908v-1.48h0.208v1.714h-0.19l-0.018-0.234zM13.147 23.552v-0.023c0-0.092 0.011-0.176 0.034-0.251s0.055-0.141 0.097-0.195c0.042-0.054 0.093-0.096 0.151-0.125s0.124-0.045 0.196-0.045c0.076 0 0.142 0.013 0.199 0.040s0.106 0.064 0.145 0.115c0.040 0.050 0.072 0.11 0.095 0.181s0.039 0.151 0.048 0.24v0.103c-0.008 0.088-0.024 0.168-0.048 0.239s-0.055 0.131-0.095 0.181c-0.039 0.050-0.088 0.088-0.145 0.115s-0.124 0.039-0.201 0.039c-0.071 0-0.135-0.015-0.194-0.046s-0.108-0.073-0.151-0.128c-0.042-0.055-0.074-0.12-0.097-0.194s-0.034-0.157-0.034-0.244zM13.354 23.529v0.023c0 0.060 0.006 0.117 0.018 0.17s0.032 0.099 0.058 0.139 0.059 0.072 0.099 0.095c0.040 0.022 0.088 0.034 0.144 0.034 0.068 0 0.125-0.015 0.169-0.044s0.080-0.067 0.107-0.115c0.027-0.048 0.048-0.099 0.063-0.155v-0.269c-0.009-0.041-0.022-0.080-0.039-0.118s-0.038-0.073-0.065-0.103c-0.026-0.031-0.058-0.055-0.097-0.073s-0.083-0.027-0.135-0.027c-0.057 0-0.105 0.012-0.146 0.036s-0.073 0.055-0.099 0.096c-0.026 0.040-0.045 0.087-0.058 0.141s-0.018 0.109-0.018 0.17zM15.63 23.996c0.049 0 0.094-0.010 0.136-0.030s0.076-0.048 0.103-0.083c0.027-0.036 0.042-0.076 0.046-0.122h0.196c-0.004 0.071-0.028 0.138-0.073 0.2s-0.102 0.11-0.173 0.148c-0.071 0.037-0.15 0.056-0.235 0.056-0.091 0-0.17-0.016-0.238-0.048s-0.123-0.076-0.167-0.132c-0.044-0.056-0.077-0.12-0.099-0.192s-0.032-0.15-0.032-0.231v-0.047c0-0.081 0.011-0.158 0.032-0.23s0.055-0.137 0.099-0.193c0.045-0.056 0.1-0.1 0.167-0.132s0.147-0.048 0.238-0.048c0.094 0 0.177 0.019 0.248 0.058s0.126 0.090 0.166 0.156c0.041 0.065 0.063 0.14 0.067 0.223h-0.196c-0.004-0.050-0.018-0.095-0.042-0.135s-0.057-0.072-0.098-0.096c-0.041-0.025-0.089-0.037-0.144-0.037-0.063 0-0.116 0.013-0.16 0.038s-0.076 0.058-0.102 0.1c-0.025 0.042-0.042 0.088-0.054 0.139s-0.016 0.102-0.016 0.155v0.047c0 0.053 0.005 0.105 0.016 0.156s0.028 0.098 0.052 0.14c0.025 0.042 0.059 0.075 0.102 0.1s0.097 0.037 0.161 0.037zM16.334 23.552v-0.026c0-0.087 0.013-0.168 0.038-0.242s0.062-0.14 0.109-0.195c0.048-0.056 0.105-0.099 0.173-0.129s0.144-0.047 0.228-0.047c0.085 0 0.161 0.016 0.229 0.047s0.126 0.074 0.174 0.129c0.048 0.055 0.085 0.12 0.11 0.195s0.038 0.155 0.038 0.242v0.026c0 0.087-0.013 0.168-0.038 0.242s-0.062 0.14-0.11 0.195c-0.048 0.055-0.105 0.098-0.173 0.129s-0.143 0.046-0.228 0.046-0.161-0.015-0.229-0.046c-0.068-0.031-0.126-0.074-0.174-0.129s-0.084-0.121-0.109-0.195c-0.025-0.074-0.038-0.155-0.038-0.242zM16.541 23.527v0.026c0 0.060 0.007 0.117 0.021 0.171s0.035 0.1 0.064 0.141c0.029 0.041 0.065 0.073 0.108 0.097s0.093 0.035 0.151 0.035c0.057 0 0.106-0.012 0.148-0.035s0.079-0.056 0.107-0.097c0.028-0.041 0.049-0.088 0.064-0.141s0.022-0.11 0.022-0.171v-0.026c0-0.060-0.008-0.116-0.022-0.169s-0.036-0.101-0.065-0.142c-0.028-0.042-0.064-0.074-0.107-0.098s-0.092-0.036-0.15-0.036c-0.057 0-0.106 0.012-0.15 0.036-0.042 0.024-0.078 0.057-0.107 0.098-0.028 0.041-0.049 0.088-0.064 0.142s-0.021 0.109-0.021 0.169zM17.945 23.193v0.95h-0.207v-1.208h0.195l0.011 0.258zM17.896 23.493l-0.086-0.003c0.001-0.083 0.013-0.159 0.037-0.229s0.057-0.132 0.1-0.184 0.095-0.092 0.154-0.121c0.060-0.029 0.127-0.043 0.2-0.043 0.059 0 0.113 0.008 0.161 0.024s0.088 0.041 0.122 0.076c0.034 0.035 0.060 0.080 0.078 0.136s0.027 0.122 0.027 0.202v0.791h-0.208v-0.794c0-0.063-0.009-0.114-0.028-0.152s-0.046-0.067-0.081-0.084c-0.036-0.018-0.080-0.027-0.132-0.027s-0.098 0.011-0.141 0.032c-0.042 0.022-0.078 0.051-0.108 0.089s-0.053 0.081-0.070 0.131c-0.016 0.048-0.025 0.1-0.025 0.154zM19.323 24.143h-0.207v-1.313c0-0.091 0.018-0.169 0.054-0.232s0.087-0.111 0.153-0.144c0.066-0.033 0.145-0.049 0.235-0.049 0.054 0 0.106 0.007 0.157 0.020s0.104 0.029 0.158 0.048l-0.035 0.174c-0.034-0.013-0.074-0.026-0.119-0.038s-0.094-0.019-0.147-0.019c-0.089 0-0.153 0.020-0.192 0.060s-0.058 0.099-0.058 0.18v1.313zM19.57 22.935v0.158h-0.644v-0.158h0.644zM19.976 22.935v1.208h-0.206v-1.208h0.206zM20.567 23.125v1.018h-0.206v-1.208h0.201l0.006 0.19zM20.945 22.929l-0.001 0.192c-0.017-0.004-0.033-0.006-0.049-0.007s-0.032-0.002-0.051-0.002c-0.048 0-0.090 0.007-0.126 0.022s-0.067 0.036-0.093 0.062-0.045 0.059-0.060 0.096c-0.014 0.036-0.023 0.077-0.028 0.121l-0.058 0.033c0-0.073 0.007-0.141 0.021-0.205s0.038-0.121 0.068-0.17c0.031-0.050 0.069-0.089 0.116-0.116s0.104-0.042 0.17-0.042c0.015 0 0.032 0.002 0.051 0.006s0.033 0.006 0.040 0.010zM21.386 23.175v0.968h-0.208v-1.208h0.196l0.011 0.24zM21.344 23.493l-0.096-0.003c0.001-0.083 0.011-0.159 0.032-0.229s0.052-0.132 0.093-0.184c0.041-0.052 0.092-0.092 0.153-0.121s0.132-0.043 0.212-0.043c0.057 0 0.109 0.008 0.156 0.024s0.089 0.041 0.124 0.075 0.062 0.078 0.081 0.132c0.019 0.054 0.029 0.118 0.029 0.194v0.805h-0.207v-0.795c0-0.063-0.011-0.114-0.032-0.152s-0.051-0.065-0.089-0.083c-0.039-0.018-0.084-0.027-0.136-0.027-0.061 0-0.112 0.011-0.153 0.032s-0.074 0.051-0.098 0.089-0.042 0.081-0.054 0.131c-0.010 0.048-0.016 0.1-0.016 0.154zM22.126 23.379l-0.138 0.042c0.001-0.066 0.012-0.13 0.032-0.191s0.052-0.115 0.093-0.163c0.041-0.048 0.091-0.085 0.151-0.113s0.128-0.042 0.204-0.042c0.065 0 0.122 0.009 0.172 0.026s0.093 0.044 0.127 0.079c0.035 0.035 0.061 0.080 0.079 0.135s0.027 0.121 0.027 0.196v0.794h-0.208v-0.796c0-0.068-0.011-0.12-0.032-0.157s-0.051-0.064-0.089-0.079c-0.038-0.016-0.083-0.023-0.136-0.023-0.045 0-0.086 0.008-0.121 0.023s-0.064 0.037-0.088 0.065c-0.024 0.027-0.042 0.058-0.055 0.093s-0.018 0.072-0.018 0.112zM23.843 22.429h0.208v1.48l-0.018 0.234h-0.19v-1.714zM24.866 23.529v0.023c0 0.088-0.010 0.169-0.031 0.244s-0.051 0.139-0.091 0.194c-0.040 0.055-0.089 0.098-0.147 0.128s-0.125 0.046-0.2 0.046c-0.077 0-0.144-0.013-0.202-0.039s-0.106-0.065-0.145-0.115-0.071-0.11-0.095-0.181c-0.023-0.071-0.039-0.15-0.048-0.239v-0.103c0.009-0.089 0.025-0.169 0.048-0.24s0.055-0.131 0.095-0.181c0.039-0.051 0.088-0.089 0.145-0.115s0.124-0.040 0.2-0.040c0.076 0 0.143 0.015 0.202 0.045s0.108 0.071 0.147 0.125c0.040 0.054 0.071 0.119 0.091 0.195s0.031 0.159 0.031 0.251zM24.659 23.552v-0.023c0-0.060-0.006-0.117-0.017-0.17s-0.029-0.101-0.054-0.141c-0.025-0.041-0.057-0.073-0.097-0.096s-0.090-0.036-0.148-0.036c-0.052 0-0.097 0.009-0.136 0.027s-0.070 0.042-0.097 0.073c-0.027 0.030-0.049 0.064-0.066 0.103s-0.029 0.077-0.037 0.118v0.269c0.012 0.052 0.031 0.102 0.058 0.151s0.064 0.087 0.109 0.117c0.046 0.031 0.103 0.046 0.171 0.046 0.056 0 0.103-0.011 0.143-0.034s0.072-0.055 0.097-0.095c0.025-0.040 0.044-0.087 0.056-0.139s0.018-0.109 0.018-0.17zM25.38 23.125v1.018h-0.207v-1.208h0.201l0.006 0.19zM25.757 22.929l-0.001 0.192c-0.017-0.004-0.033-0.006-0.049-0.007s-0.032-0.002-0.051-0.002c-0.048 0-0.090 0.007-0.126 0.022s-0.067 0.036-0.093 0.062-0.045 0.059-0.060 0.096c-0.014 0.036-0.023 0.077-0.028 0.121l-0.058 0.033c0-0.073 0.007-0.141 0.021-0.205s0.038-0.121 0.068-0.17c0.030-0.050 0.069-0.089 0.116-0.116s0.104-0.042 0.17-0.042c0.015 0 0.032 0.002 0.051 0.006s0.033 0.006 0.040 0.010zM26.661 23.936v-0.622c0-0.048-0.010-0.089-0.029-0.124s-0.047-0.063-0.085-0.083c-0.038-0.019-0.085-0.029-0.141-0.029-0.052 0-0.098 0.009-0.137 0.027s-0.069 0.041-0.092 0.070c-0.022 0.029-0.032 0.060-0.032 0.094h-0.207c0-0.043 0.011-0.086 0.034-0.128s0.054-0.081 0.096-0.115c0.042-0.035 0.093-0.063 0.152-0.083s0.126-0.031 0.199-0.031c0.088 0 0.165 0.015 0.232 0.045s0.12 0.075 0.158 0.135c0.039 0.060 0.058 0.134 0.058 0.224v0.562c0 0.040 0.003 0.083 0.010 0.128s0.018 0.084 0.032 0.117v0.018h-0.215c-0.010-0.024-0.019-0.055-0.025-0.095s-0.009-0.077-0.009-0.112zM26.697 23.411l0.002 0.145h-0.209c-0.059 0-0.111 0.005-0.157 0.014s-0.085 0.023-0.116 0.041c-0.031 0.019-0.055 0.042-0.071 0.070s-0.025 0.060-0.025 0.097c0 0.038 0.009 0.073 0.026 0.104s0.043 0.056 0.077 0.075c0.035 0.018 0.078 0.027 0.128 0.027 0.063 0 0.119-0.013 0.167-0.040s0.087-0.059 0.115-0.098c0.029-0.039 0.045-0.076 0.047-0.113l0.088 0.099c-0.005 0.031-0.019 0.066-0.042 0.104s-0.054 0.074-0.093 0.109c-0.038 0.034-0.083 0.063-0.136 0.086s-0.111 0.033-0.176 0.033c-0.082 0-0.154-0.016-0.215-0.048s-0.109-0.075-0.143-0.128c-0.033-0.054-0.050-0.115-0.050-0.182 0-0.065 0.013-0.122 0.038-0.171s0.062-0.091 0.109-0.124c0.048-0.033 0.105-0.059 0.172-0.076s0.142-0.026 0.224-0.026h0.24zM27.444 23.193v0.95h-0.206v-1.208h0.195l0.011 0.258zM27.395 23.493l-0.086-0.003c0.001-0.083 0.013-0.159 0.037-0.229s0.057-0.132 0.1-0.184 0.094-0.092 0.154-0.121c0.060-0.029 0.127-0.043 0.2-0.043 0.060 0 0.113 0.008 0.161 0.024s0.088 0.041 0.122 0.076c0.034 0.035 0.060 0.080 0.078 0.136s0.027 0.122 0.027 0.202v0.791h-0.208v-0.794c0-0.063-0.009-0.114-0.028-0.152s-0.046-0.067-0.082-0.084c-0.036-0.018-0.080-0.027-0.132-0.027s-0.098 0.011-0.141 0.032c-0.042 0.022-0.078 0.051-0.108 0.089s-0.053 0.081-0.070 0.131c-0.016 0.048-0.025 0.1-0.025 0.154zM29.308 23.908v-1.48h0.208v1.714h-0.19l-0.018-0.234zM28.496 23.552v-0.023c0-0.092 0.011-0.176 0.033-0.251s0.055-0.141 0.097-0.195c0.042-0.054 0.093-0.096 0.151-0.125s0.124-0.045 0.196-0.045c0.076 0 0.142 0.013 0.199 0.040s0.106 0.064 0.145 0.115c0.040 0.050 0.072 0.11 0.095 0.181s0.039 0.151 0.048 0.24v0.103c-0.008 0.088-0.024 0.168-0.048 0.239s-0.055 0.131-0.095 0.181c-0.039 0.050-0.088 0.088-0.145 0.115s-0.124 0.039-0.201 0.039c-0.071 0-0.135-0.015-0.194-0.046s-0.108-0.073-0.151-0.128c-0.042-0.055-0.074-0.12-0.097-0.194s-0.033-0.157-0.033-0.244zM28.703 23.529v0.023c0 0.060 0.006 0.117 0.018 0.17s0.032 0.099 0.058 0.139c0.026 0.040 0.059 0.072 0.099 0.095s0.088 0.034 0.144 0.034c0.068 0 0.125-0.015 0.168-0.044s0.080-0.067 0.107-0.115c0.027-0.048 0.048-0.099 0.063-0.155v-0.269c-0.009-0.041-0.022-0.080-0.039-0.118s-0.038-0.073-0.065-0.103c-0.026-0.031-0.058-0.055-0.097-0.073s-0.083-0.027-0.135-0.027c-0.057 0-0.105 0.012-0.146 0.036s-0.073 0.055-0.099 0.096c-0.026 0.040-0.045 0.087-0.058 0.141s-0.018 0.109-0.018 0.17zM30.586 23.823c0-0.030-0.007-0.057-0.020-0.083s-0.039-0.050-0.079-0.070c-0.039-0.022-0.099-0.040-0.179-0.056-0.067-0.014-0.128-0.031-0.182-0.050s-0.099-0.043-0.137-0.070c-0.037-0.028-0.066-0.060-0.086-0.097s-0.030-0.081-0.030-0.131c0-0.048 0.010-0.093 0.031-0.135s0.052-0.080 0.090-0.113c0.039-0.033 0.087-0.058 0.142-0.077s0.116-0.028 0.184-0.028c0.097 0 0.179 0.017 0.248 0.051s0.121 0.080 0.157 0.137c0.036 0.057 0.055 0.119 0.055 0.189h-0.206c0-0.033-0.010-0.066-0.030-0.097s-0.048-0.058-0.086-0.079c-0.037-0.021-0.083-0.031-0.137-0.031-0.057 0-0.104 0.009-0.139 0.027s-0.061 0.039-0.077 0.066c-0.016 0.027-0.024 0.055-0.024 0.085 0 0.022 0.004 0.042 0.011 0.060s0.022 0.033 0.042 0.048c0.020 0.014 0.048 0.028 0.085 0.040s0.083 0.025 0.14 0.038c0.099 0.022 0.18 0.049 0.244 0.080s0.112 0.069 0.143 0.115 0.047 0.1 0.047 0.165c0 0.053-0.011 0.101-0.034 0.145s-0.053 0.082-0.095 0.114c-0.041 0.031-0.090 0.056-0.147 0.074s-0.12 0.026-0.191 0.026c-0.106 0-0.196-0.019-0.27-0.057s-0.13-0.087-0.167-0.147c-0.038-0.060-0.057-0.124-0.057-0.191h0.208c0.003 0.056 0.019 0.102 0.049 0.135s0.066 0.056 0.109 0.070c0.043 0.013 0.086 0.020 0.128 0.020 0.057 0 0.104-0.007 0.142-0.022s0.068-0.035 0.088-0.061c0.020-0.026 0.030-0.056 0.030-0.089zM32.228 22.935v0.158h-0.653v-0.158h0.653zM31.796 22.642h0.206v1.202c0 0.041 0.006 0.072 0.019 0.093s0.029 0.035 0.049 0.041c0.020 0.007 0.042 0.010 0.065 0.010 0.017 0 0.035-0.001 0.054-0.004s0.034-0.007 0.043-0.009l0.001 0.169c-0.016 0.005-0.038 0.010-0.065 0.015s-0.058 0.008-0.095 0.008c-0.051 0-0.097-0.010-0.14-0.030s-0.076-0.054-0.102-0.1c-0.024-0.048-0.037-0.112-0.037-0.192v-1.201zM32.722 22.429v1.714h-0.207v-1.714h0.207zM32.673 23.493l-0.086-0.003c0.001-0.083 0.013-0.159 0.037-0.229s0.057-0.132 0.1-0.184 0.095-0.092 0.154-0.121c0.060-0.029 0.127-0.043 0.2-0.043 0.060 0 0.113 0.008 0.161 0.024s0.088 0.041 0.122 0.076c0.034 0.035 0.060 0.080 0.078 0.136s0.027 0.122 0.027 0.202v0.791h-0.208v-0.794c0-0.063-0.009-0.114-0.028-0.152s-0.046-0.067-0.081-0.084c-0.036-0.018-0.080-0.027-0.132-0.027s-0.098 0.011-0.141 0.032c-0.042 0.022-0.078 0.051-0.108 0.089s-0.053 0.081-0.070 0.131c-0.016 0.048-0.025 0.1-0.025 0.154zM34.532 23.936v-0.622c0-0.048-0.010-0.089-0.029-0.124s-0.047-0.063-0.085-0.083c-0.038-0.019-0.085-0.029-0.141-0.029-0.052 0-0.098 0.009-0.137 0.027s-0.069 0.041-0.092 0.070c-0.022 0.029-0.032 0.060-0.032 0.094h-0.206c0-0.043 0.011-0.086 0.033-0.128s0.054-0.081 0.096-0.115c0.042-0.035 0.093-0.063 0.152-0.083s0.126-0.031 0.199-0.031c0.088 0 0.165 0.015 0.232 0.045s0.121 0.075 0.158 0.135c0.039 0.060 0.058 0.134 0.058 0.224v0.562c0 0.040 0.003 0.083 0.010 0.128s0.018 0.084 0.032 0.117v0.018h-0.215c-0.010-0.024-0.019-0.055-0.025-0.095s-0.009-0.077-0.009-0.112zM34.568 23.411l0.002 0.145h-0.209c-0.059 0-0.111 0.005-0.157 0.014s-0.085 0.023-0.116 0.041-0.055 0.042-0.071 0.070c-0.016 0.028-0.025 0.060-0.025 0.097s0.009 0.073 0.026 0.104c0.017 0.031 0.043 0.056 0.077 0.075s0.078 0.027 0.128 0.027c0.063 0 0.119-0.013 0.167-0.040s0.087-0.059 0.115-0.098c0.029-0.039 0.045-0.076 0.047-0.113l0.088 0.099c-0.005 0.031-0.019 0.066-0.042 0.104s-0.054 0.074-0.093 0.109c-0.038 0.034-0.083 0.063-0.136 0.086s-0.111 0.033-0.176 0.033c-0.082 0-0.154-0.016-0.215-0.048s-0.109-0.075-0.143-0.128c-0.033-0.054-0.050-0.115-0.050-0.182 0-0.065 0.013-0.122 0.038-0.171s0.062-0.091 0.109-0.124c0.048-0.033 0.105-0.059 0.172-0.076s0.142-0.026 0.224-0.026h0.24zM35.615 22.935v0.158h-0.653v-0.158h0.653zM35.183 22.642h0.206v1.202c0 0.041 0.006 0.072 0.019 0.093s0.029 0.035 0.049 0.041c0.020 0.007 0.042 0.010 0.065 0.010 0.017 0 0.035-0.001 0.054-0.004s0.034-0.007 0.043-0.009l0.001 0.169c-0.016 0.005-0.038 0.010-0.065 0.015s-0.058 0.008-0.095 0.008c-0.051 0-0.097-0.010-0.14-0.030s-0.076-0.054-0.101-0.1c-0.025-0.048-0.037-0.112-0.037-0.192v-1.201zM0.364 26.596v1.44h-0.208v-1.672h0.19l0.018 0.232zM1.177 26.958v0.023c0 0.088-0.010 0.169-0.031 0.244s-0.051 0.139-0.092 0.194c-0.039 0.055-0.088 0.098-0.146 0.128s-0.125 0.046-0.2 0.046c-0.077 0-0.144-0.013-0.203-0.038s-0.109-0.062-0.15-0.111c-0.041-0.048-0.074-0.106-0.098-0.174s-0.040-0.144-0.049-0.229v-0.125c0.009-0.089 0.026-0.169 0.050-0.24s0.057-0.131 0.097-0.181c0.041-0.051 0.090-0.089 0.148-0.115s0.125-0.040 0.201-0.040 0.143 0.015 0.202 0.045c0.059 0.029 0.108 0.071 0.148 0.125s0.070 0.119 0.090 0.195c0.021 0.075 0.031 0.159 0.031 0.251zM0.97 26.981v-0.023c0-0.060-0.006-0.117-0.019-0.17s-0.032-0.101-0.059-0.141c-0.026-0.041-0.060-0.073-0.1-0.096s-0.090-0.036-0.146-0.036c-0.052 0-0.097 0.009-0.136 0.027s-0.070 0.042-0.097 0.073c-0.027 0.030-0.049 0.064-0.066 0.103s-0.029 0.077-0.037 0.118v0.289c0.015 0.052 0.036 0.101 0.063 0.147s0.063 0.082 0.107 0.111c0.045 0.027 0.101 0.041 0.169 0.041 0.056 0 0.104-0.012 0.144-0.035s0.074-0.056 0.1-0.097c0.027-0.041 0.046-0.088 0.059-0.141s0.019-0.11 0.019-0.171zM1.693 26.554v1.018h-0.206v-1.208h0.201l0.006 0.19zM2.070 26.357l-0.001 0.192c-0.017-0.004-0.034-0.006-0.049-0.007s-0.032-0.002-0.051-0.002c-0.048 0-0.090 0.007-0.126 0.022s-0.067 0.036-0.093 0.062-0.045 0.059-0.060 0.096c-0.014 0.036-0.023 0.077-0.028 0.121l-0.058 0.033c0-0.073 0.007-0.141 0.021-0.205s0.038-0.121 0.068-0.17c0.030-0.050 0.069-0.089 0.116-0.116s0.104-0.042 0.17-0.042c0.015 0 0.032 0.002 0.051 0.006s0.033 0.006 0.040 0.010zM2.786 27.594c-0.084 0-0.16-0.014-0.229-0.042s-0.126-0.070-0.175-0.122c-0.048-0.052-0.086-0.114-0.112-0.185s-0.039-0.15-0.039-0.234v-0.047c0-0.098 0.014-0.186 0.044-0.262s0.068-0.143 0.118-0.196 0.106-0.094 0.17-0.122c0.063-0.028 0.129-0.041 0.196-0.041 0.086 0 0.161 0.015 0.223 0.045s0.115 0.071 0.155 0.125c0.040 0.053 0.070 0.115 0.089 0.188s0.029 0.15 0.029 0.234v0.093h-0.902v-0.169h0.695v-0.016c-0.003-0.054-0.014-0.106-0.033-0.156s-0.048-0.092-0.089-0.125-0.097-0.049-0.167-0.049c-0.047 0-0.090 0.010-0.129 0.030s-0.073 0.048-0.102 0.087c-0.028 0.039-0.050 0.086-0.066 0.142s-0.023 0.12-0.023 0.193v0.047c0 0.057 0.008 0.111 0.023 0.162s0.040 0.094 0.070 0.132c0.031 0.038 0.069 0.068 0.113 0.089s0.095 0.032 0.152 0.032c0.073 0 0.135-0.015 0.185-0.045s0.095-0.070 0.133-0.119l0.125 0.099c-0.026 0.039-0.059 0.077-0.099 0.113s-0.090 0.065-0.148 0.087c-0.058 0.022-0.127 0.033-0.206 0.033zM4.245 27.251c0-0.030-0.007-0.057-0.020-0.083s-0.039-0.050-0.079-0.070c-0.039-0.022-0.099-0.040-0.179-0.056-0.067-0.014-0.128-0.031-0.182-0.050s-0.099-0.043-0.137-0.070c-0.037-0.028-0.066-0.060-0.086-0.097s-0.030-0.081-0.030-0.131c0-0.048 0.010-0.093 0.031-0.135s0.052-0.080 0.090-0.113c0.039-0.033 0.087-0.058 0.142-0.077s0.116-0.028 0.184-0.028c0.097 0 0.179 0.017 0.248 0.051s0.121 0.080 0.157 0.137c0.036 0.057 0.055 0.119 0.055 0.189h-0.206c0-0.033-0.010-0.066-0.030-0.097s-0.048-0.058-0.086-0.079c-0.037-0.021-0.083-0.031-0.137-0.031-0.057 0-0.104 0.009-0.139 0.027s-0.061 0.039-0.077 0.066c-0.016 0.027-0.023 0.055-0.023 0.085 0 0.022 0.004 0.042 0.011 0.060s0.022 0.033 0.042 0.048c0.020 0.014 0.048 0.028 0.085 0.040s0.083 0.025 0.139 0.038c0.099 0.022 0.18 0.049 0.244 0.080s0.112 0.069 0.143 0.115 0.047 0.1 0.047 0.165c0 0.053-0.011 0.101-0.034 0.145s-0.053 0.082-0.095 0.114c-0.041 0.031-0.090 0.056-0.147 0.074s-0.12 0.026-0.191 0.026c-0.106 0-0.196-0.019-0.27-0.057s-0.129-0.087-0.167-0.147c-0.038-0.060-0.057-0.124-0.057-0.191h0.208c0.003 0.056 0.019 0.102 0.049 0.135s0.066 0.056 0.109 0.070c0.043 0.013 0.086 0.020 0.128 0.020 0.057 0 0.104-0.007 0.142-0.022s0.068-0.035 0.088-0.061 0.030-0.056 0.030-0.089zM5.27 27.594c-0.084 0-0.16-0.014-0.229-0.042s-0.126-0.070-0.175-0.122c-0.048-0.052-0.086-0.114-0.112-0.185s-0.039-0.15-0.039-0.234v-0.047c0-0.098 0.014-0.186 0.043-0.262s0.068-0.143 0.118-0.196 0.106-0.094 0.17-0.122c0.063-0.028 0.129-0.041 0.196-0.041 0.086 0 0.161 0.015 0.223 0.045s0.115 0.071 0.155 0.125c0.040 0.053 0.070 0.115 0.089 0.188s0.029 0.15 0.029 0.234v0.093h-0.902v-0.169h0.695v-0.016c-0.003-0.054-0.014-0.106-0.034-0.156s-0.048-0.092-0.089-0.125-0.097-0.049-0.167-0.049c-0.047 0-0.090 0.010-0.129 0.030s-0.073 0.048-0.102 0.087c-0.028 0.039-0.050 0.086-0.066 0.142s-0.023 0.12-0.023 0.193v0.047c0 0.057 0.008 0.111 0.023 0.162s0.040 0.094 0.070 0.132c0.031 0.038 0.069 0.068 0.113 0.089s0.095 0.032 0.152 0.032c0.073 0 0.135-0.015 0.185-0.045s0.095-0.070 0.133-0.119l0.125 0.099c-0.026 0.039-0.059 0.077-0.099 0.113s-0.090 0.065-0.148 0.087c-0.058 0.022-0.127 0.033-0.206 0.033zM6.233 26.622v0.95h-0.206v-1.208h0.195l0.011 0.258zM6.184 26.922l-0.086-0.003c0.001-0.083 0.013-0.159 0.037-0.229s0.057-0.132 0.1-0.184 0.095-0.092 0.154-0.121c0.060-0.029 0.127-0.043 0.2-0.043 0.060 0 0.113 0.008 0.161 0.024s0.088 0.041 0.122 0.076c0.034 0.035 0.060 0.080 0.078 0.136s0.027 0.122 0.027 0.202v0.791h-0.208v-0.794c0-0.063-0.009-0.114-0.028-0.152s-0.046-0.067-0.081-0.084c-0.036-0.018-0.080-0.027-0.132-0.027s-0.098 0.011-0.141 0.032c-0.042 0.022-0.078 0.051-0.108 0.089s-0.053 0.081-0.070 0.131c-0.016 0.048-0.025 0.1-0.025 0.154zM7.841 26.364v0.158h-0.653v-0.158h0.653zM7.409 26.070h0.206v1.202c0 0.041 0.006 0.072 0.019 0.093s0.029 0.035 0.049 0.041c0.020 0.007 0.042 0.010 0.065 0.010 0.017 0 0.035-0.001 0.054-0.004s0.034-0.007 0.044-0.009l0.001 0.169c-0.016 0.005-0.038 0.010-0.065 0.015s-0.058 0.008-0.095 0.008c-0.051 0-0.097-0.010-0.139-0.030s-0.076-0.054-0.102-0.1c-0.025-0.048-0.037-0.112-0.037-0.192v-1.201zM9.247 26.364v0.158h-0.653v-0.158h0.653zM8.816 26.070h0.207v1.202c0 0.041 0.006 0.072 0.019 0.093s0.029 0.035 0.049 0.041c0.020 0.007 0.042 0.010 0.065 0.010 0.017 0 0.035-0.001 0.054-0.004s0.034-0.007 0.044-0.009l0.001 0.169c-0.016 0.005-0.038 0.010-0.065 0.015s-0.058 0.008-0.095 0.008c-0.051 0-0.097-0.010-0.139-0.030s-0.076-0.054-0.102-0.1c-0.025-0.048-0.037-0.112-0.037-0.192v-1.201zM9.742 25.857v1.714h-0.206v-1.714h0.206zM9.693 26.922l-0.086-0.003c0.001-0.083 0.013-0.159 0.037-0.229s0.057-0.132 0.1-0.184 0.095-0.092 0.154-0.121c0.060-0.029 0.127-0.043 0.2-0.043 0.060 0 0.113 0.008 0.161 0.024s0.088 0.041 0.122 0.076c0.034 0.035 0.060 0.080 0.078 0.136s0.027 0.122 0.027 0.202v0.791h-0.208v-0.794c0-0.063-0.009-0.114-0.028-0.152s-0.046-0.067-0.081-0.084c-0.036-0.018-0.080-0.027-0.132-0.027s-0.098 0.011-0.141 0.032c-0.042 0.022-0.078 0.051-0.108 0.089s-0.053 0.081-0.070 0.131c-0.016 0.048-0.025 0.1-0.025 0.154zM11.341 27.594c-0.084 0-0.16-0.014-0.229-0.042s-0.126-0.070-0.175-0.122c-0.048-0.052-0.086-0.114-0.112-0.185s-0.039-0.15-0.039-0.234v-0.047c0-0.098 0.014-0.186 0.044-0.262s0.068-0.143 0.118-0.196 0.106-0.094 0.17-0.122c0.063-0.028 0.129-0.041 0.196-0.041 0.086 0 0.161 0.015 0.223 0.045s0.115 0.071 0.155 0.125c0.040 0.053 0.070 0.115 0.089 0.188s0.029 0.15 0.029 0.234v0.093h-0.902v-0.169h0.695v-0.016c-0.003-0.054-0.014-0.106-0.033-0.156s-0.048-0.092-0.089-0.125-0.097-0.049-0.167-0.049c-0.047 0-0.090 0.010-0.129 0.030s-0.073 0.048-0.102 0.087c-0.028 0.039-0.050 0.086-0.066 0.142s-0.023 0.12-0.023 0.193v0.047c0 0.057 0.008 0.111 0.023 0.162s0.040 0.094 0.070 0.132c0.031 0.038 0.069 0.068 0.113 0.089s0.095 0.032 0.152 0.032c0.073 0 0.135-0.015 0.185-0.045s0.095-0.070 0.133-0.119l0.125 0.099c-0.026 0.039-0.059 0.077-0.099 0.113s-0.090 0.065-0.148 0.087c-0.058 0.022-0.127 0.033-0.206 0.033zM13.414 27.251c0-0.030-0.007-0.057-0.020-0.083s-0.039-0.050-0.079-0.070c-0.039-0.022-0.099-0.040-0.179-0.056-0.067-0.014-0.128-0.031-0.182-0.050s-0.099-0.043-0.137-0.070c-0.037-0.028-0.066-0.060-0.086-0.097s-0.030-0.081-0.030-0.131c0-0.048 0.010-0.093 0.031-0.135s0.052-0.080 0.090-0.113c0.039-0.033 0.087-0.058 0.142-0.077s0.116-0.028 0.184-0.028c0.097 0 0.179 0.017 0.248 0.051s0.121 0.080 0.157 0.137c0.036 0.057 0.055 0.119 0.055 0.189h-0.207c0-0.033-0.010-0.066-0.030-0.097s-0.048-0.058-0.086-0.079c-0.037-0.021-0.083-0.031-0.137-0.031-0.057 0-0.104 0.009-0.139 0.027s-0.061 0.039-0.077 0.066c-0.016 0.027-0.023 0.055-0.023 0.085 0 0.022 0.004 0.042 0.011 0.060s0.022 0.033 0.042 0.048c0.020 0.014 0.048 0.028 0.085 0.040s0.083 0.025 0.139 0.038c0.099 0.022 0.18 0.049 0.244 0.080s0.112 0.069 0.143 0.115 0.047 0.1 0.047 0.165c0 0.053-0.011 0.101-0.034 0.145s-0.053 0.082-0.095 0.114c-0.041 0.031-0.090 0.056-0.147 0.074s-0.12 0.026-0.191 0.026c-0.106 0-0.196-0.019-0.27-0.057s-0.129-0.087-0.167-0.147c-0.038-0.060-0.057-0.124-0.057-0.191h0.208c0.003 0.056 0.019 0.102 0.049 0.135s0.066 0.056 0.109 0.070c0.043 0.013 0.086 0.020 0.128 0.020 0.057 0 0.104-0.007 0.142-0.022s0.068-0.035 0.088-0.061 0.030-0.056 0.030-0.089zM14.443 26.364v0.158h-0.653v-0.158h0.653zM14.011 26.070h0.206v1.202c0 0.041 0.006 0.072 0.019 0.093s0.029 0.035 0.049 0.041c0.020 0.007 0.042 0.010 0.065 0.010 0.017 0 0.035-0.001 0.054-0.004s0.034-0.007 0.044-0.009l0.001 0.169c-0.016 0.005-0.038 0.010-0.065 0.015s-0.058 0.008-0.095 0.008c-0.051 0-0.097-0.010-0.139-0.030s-0.076-0.054-0.102-0.1c-0.025-0.048-0.037-0.112-0.037-0.192v-1.201zM14.937 26.554v1.018h-0.206v-1.208h0.201l0.006 0.19zM15.314 26.357l-0.001 0.192c-0.017-0.004-0.033-0.006-0.049-0.007s-0.032-0.002-0.051-0.002c-0.048 0-0.090 0.007-0.126 0.022s-0.067 0.036-0.093 0.062c-0.025 0.027-0.045 0.059-0.060 0.096s-0.023 0.077-0.028 0.121l-0.058 0.033c0-0.073 0.007-0.141 0.021-0.205s0.038-0.121 0.068-0.17c0.031-0.050 0.069-0.089 0.116-0.116s0.104-0.042 0.17-0.042c0.015 0 0.032 0.002 0.051 0.006s0.033 0.006 0.040 0.010zM15.474 26.981v-0.026c0-0.087 0.013-0.168 0.038-0.242s0.062-0.14 0.109-0.195c0.048-0.056 0.105-0.099 0.173-0.129s0.144-0.047 0.228-0.047c0.085 0 0.161 0.016 0.229 0.047s0.127 0.074 0.174 0.129c0.048 0.055 0.085 0.12 0.11 0.195s0.038 0.155 0.038 0.242v0.026c0 0.087-0.013 0.168-0.038 0.242s-0.062 0.14-0.11 0.195c-0.048 0.055-0.105 0.098-0.173 0.129s-0.143 0.046-0.228 0.046-0.161-0.015-0.229-0.046c-0.068-0.031-0.126-0.074-0.174-0.129s-0.084-0.121-0.109-0.195c-0.025-0.074-0.038-0.155-0.038-0.242zM15.68 26.955v0.026c0 0.060 0.007 0.117 0.021 0.171s0.035 0.1 0.064 0.141c0.029 0.041 0.065 0.073 0.108 0.097s0.093 0.035 0.151 0.035c0.057 0 0.106-0.012 0.148-0.035s0.079-0.056 0.107-0.097c0.028-0.041 0.050-0.088 0.064-0.141s0.022-0.11 0.022-0.171v-0.026c0-0.060-0.007-0.116-0.022-0.169s-0.036-0.101-0.065-0.142c-0.028-0.042-0.064-0.074-0.107-0.098-0.042-0.024-0.092-0.036-0.149-0.036s-0.106 0.012-0.15 0.036c-0.042 0.024-0.078 0.057-0.107 0.098s-0.050 0.088-0.064 0.142c-0.014 0.053-0.021 0.109-0.021 0.169zM17.084 26.622v0.95h-0.207v-1.208h0.195l0.011 0.258zM17.035 26.922l-0.086-0.003c0.001-0.083 0.013-0.159 0.037-0.229s0.057-0.132 0.1-0.184 0.095-0.092 0.154-0.121c0.060-0.029 0.127-0.043 0.2-0.043 0.060 0 0.113 0.008 0.161 0.024s0.088 0.041 0.122 0.076c0.034 0.035 0.060 0.080 0.078 0.136s0.027 0.122 0.027 0.202v0.791h-0.208v-0.794c0-0.063-0.009-0.114-0.028-0.152s-0.046-0.067-0.081-0.084c-0.036-0.018-0.080-0.027-0.132-0.027s-0.098 0.011-0.141 0.032c-0.042 0.022-0.078 0.051-0.108 0.089s-0.053 0.081-0.070 0.131c-0.016 0.048-0.025 0.1-0.025 0.154zM18.969 26.364h0.187v1.182c0 0.106-0.022 0.197-0.065 0.272s-0.103 0.132-0.181 0.171c-0.077 0.039-0.165 0.059-0.266 0.059-0.042 0-0.091-0.007-0.147-0.020s-0.111-0.035-0.165-0.066c-0.054-0.030-0.099-0.072-0.135-0.124l0.108-0.123c0.051 0.061 0.103 0.103 0.159 0.127s0.111 0.036 0.165 0.036c0.065 0 0.122-0.012 0.17-0.037s0.084-0.061 0.111-0.109c0.027-0.048 0.040-0.106 0.040-0.176v-0.926l0.019-0.266zM18.138 26.981v-0.023c0-0.092 0.011-0.176 0.032-0.251s0.054-0.141 0.095-0.195c0.042-0.054 0.092-0.096 0.151-0.125s0.125-0.045 0.199-0.045c0.076 0 0.142 0.013 0.199 0.040s0.106 0.064 0.145 0.115c0.040 0.050 0.072 0.11 0.095 0.181s0.039 0.151 0.048 0.24v0.103c-0.008 0.088-0.024 0.168-0.048 0.239s-0.055 0.131-0.095 0.181c-0.039 0.050-0.088 0.088-0.145 0.115s-0.124 0.039-0.201 0.039c-0.072 0-0.138-0.015-0.196-0.046s-0.108-0.073-0.15-0.128c-0.042-0.055-0.074-0.12-0.096-0.194s-0.032-0.157-0.032-0.244zM18.344 26.958v0.023c0 0.060 0.006 0.117 0.018 0.17s0.032 0.099 0.057 0.139c0.026 0.040 0.059 0.072 0.099 0.095s0.088 0.034 0.144 0.034c0.068 0 0.125-0.015 0.17-0.044s0.080-0.067 0.106-0.115c0.027-0.048 0.048-0.099 0.063-0.155v-0.269c-0.008-0.041-0.021-0.080-0.038-0.118s-0.038-0.073-0.065-0.103c-0.026-0.031-0.058-0.055-0.097-0.073s-0.084-0.027-0.136-0.027c-0.057 0-0.105 0.012-0.146 0.036s-0.073 0.055-0.099 0.096c-0.025 0.040-0.044 0.087-0.057 0.141s-0.018 0.109-0.018 0.17zM20.017 27.594c-0.084 0-0.16-0.014-0.229-0.042s-0.126-0.070-0.175-0.122c-0.048-0.052-0.086-0.114-0.112-0.185s-0.039-0.15-0.039-0.234v-0.047c0-0.098 0.014-0.186 0.043-0.262s0.068-0.143 0.118-0.196 0.106-0.094 0.17-0.122c0.063-0.028 0.129-0.041 0.196-0.041 0.086 0 0.161 0.015 0.223 0.045s0.115 0.071 0.155 0.125c0.040 0.053 0.070 0.115 0.089 0.188s0.029 0.15 0.029 0.234v0.093h-0.902v-0.169h0.695v-0.016c-0.003-0.054-0.014-0.106-0.033-0.156s-0.048-0.092-0.089-0.125c-0.041-0.033-0.097-0.049-0.167-0.049-0.047 0-0.090 0.010-0.129 0.030s-0.073 0.048-0.102 0.087c-0.028 0.039-0.050 0.086-0.066 0.142s-0.023 0.12-0.023 0.193v0.047c0 0.057 0.008 0.111 0.023 0.162s0.040 0.094 0.070 0.132c0.031 0.038 0.069 0.068 0.113 0.089s0.095 0.032 0.152 0.032c0.073 0 0.135-0.015 0.185-0.045s0.095-0.070 0.133-0.119l0.125 0.099c-0.026 0.039-0.059 0.077-0.099 0.113s-0.090 0.065-0.148 0.087c-0.058 0.022-0.127 0.033-0.207 0.033zM21.477 27.251c0-0.030-0.007-0.057-0.020-0.083s-0.039-0.050-0.079-0.070c-0.040-0.022-0.099-0.040-0.179-0.056-0.067-0.014-0.128-0.031-0.182-0.050s-0.099-0.043-0.137-0.070c-0.037-0.028-0.066-0.060-0.086-0.097s-0.030-0.081-0.030-0.131c0-0.048 0.010-0.093 0.031-0.135s0.052-0.080 0.090-0.113c0.039-0.033 0.087-0.058 0.142-0.077s0.116-0.028 0.184-0.028c0.097 0 0.179 0.017 0.248 0.051s0.121 0.080 0.157 0.137c0.037 0.057 0.055 0.119 0.055 0.189h-0.206c0-0.033-0.010-0.066-0.030-0.097s-0.048-0.058-0.086-0.079c-0.037-0.021-0.083-0.031-0.137-0.031-0.057 0-0.104 0.009-0.139 0.027s-0.061 0.039-0.077 0.066c-0.016 0.027-0.023 0.055-0.023 0.085 0 0.022 0.004 0.042 0.011 0.060s0.022 0.033 0.042 0.048c0.020 0.014 0.048 0.028 0.085 0.040s0.083 0.025 0.139 0.038c0.099 0.022 0.18 0.049 0.244 0.080s0.112 0.069 0.143 0.115 0.047 0.1 0.047 0.165c0 0.053-0.011 0.101-0.033 0.145s-0.053 0.082-0.095 0.114c-0.041 0.031-0.090 0.056-0.147 0.074s-0.12 0.026-0.191 0.026c-0.106 0-0.196-0.019-0.27-0.057s-0.129-0.087-0.167-0.147c-0.038-0.060-0.057-0.124-0.057-0.191h0.208c0.003 0.056 0.019 0.102 0.049 0.135s0.066 0.056 0.109 0.070c0.043 0.013 0.086 0.020 0.128 0.020 0.056 0 0.104-0.007 0.142-0.022s0.068-0.035 0.088-0.061 0.030-0.056 0.030-0.089zM22.506 26.364v0.158h-0.653v-0.158h0.653zM22.074 26.070h0.206v1.202c0 0.041 0.006 0.072 0.019 0.093s0.029 0.035 0.049 0.041 0.042 0.010 0.065 0.010c0.017 0 0.035-0.001 0.054-0.004s0.034-0.007 0.044-0.009l0.001 0.169c-0.016 0.005-0.038 0.010-0.065 0.015s-0.058 0.008-0.095 0.008c-0.051 0-0.097-0.010-0.139-0.030s-0.076-0.054-0.102-0.1c-0.025-0.048-0.037-0.112-0.037-0.192v-1.201zM24.168 27.337v-1.48h0.208v1.714h-0.19l-0.018-0.234zM23.355 26.981v-0.023c0-0.092 0.011-0.176 0.034-0.251s0.055-0.141 0.097-0.195c0.042-0.054 0.093-0.096 0.151-0.125s0.124-0.045 0.196-0.045c0.076 0 0.142 0.013 0.199 0.040s0.106 0.064 0.145 0.115c0.040 0.050 0.072 0.11 0.095 0.181s0.039 0.151 0.048 0.24v0.103c-0.008 0.088-0.024 0.168-0.048 0.239s-0.055 0.131-0.095 0.181c-0.039 0.050-0.088 0.088-0.145 0.115s-0.124 0.039-0.201 0.039c-0.071 0-0.135-0.015-0.194-0.046s-0.108-0.073-0.151-0.128c-0.042-0.055-0.074-0.12-0.097-0.194s-0.034-0.157-0.034-0.244zM23.563 26.958v0.023c0 0.060 0.006 0.117 0.018 0.17s0.032 0.099 0.058 0.139c0.026 0.040 0.059 0.072 0.099 0.095s0.088 0.034 0.144 0.034c0.068 0 0.125-0.015 0.168-0.044s0.080-0.067 0.107-0.115c0.027-0.048 0.048-0.099 0.063-0.155v-0.269c-0.009-0.041-0.022-0.080-0.039-0.118s-0.038-0.073-0.065-0.103c-0.026-0.031-0.058-0.055-0.097-0.073s-0.083-0.027-0.135-0.027c-0.056 0-0.105 0.012-0.146 0.036s-0.073 0.055-0.099 0.096c-0.026 0.040-0.045 0.087-0.058 0.141s-0.018 0.109-0.018 0.17zM24.967 26.364v1.208h-0.208v-1.208h0.208zM24.743 26.044c0-0.034 0.010-0.062 0.030-0.085s0.051-0.035 0.091-0.035c0.039 0 0.070 0.011 0.090 0.035s0.032 0.051 0.032 0.085c0 0.032-0.011 0.059-0.032 0.083s-0.051 0.033-0.090 0.033c-0.040 0-0.071-0.011-0.091-0.033s-0.030-0.051-0.030-0.083zM26.126 26.364h0.188v1.182c0 0.106-0.022 0.197-0.065 0.272s-0.103 0.132-0.181 0.171c-0.077 0.039-0.165 0.059-0.266 0.059-0.042 0-0.091-0.007-0.147-0.020s-0.111-0.035-0.165-0.066c-0.054-0.030-0.099-0.072-0.135-0.124l0.108-0.123c0.051 0.061 0.103 0.103 0.159 0.127s0.111 0.036 0.165 0.036c0.065 0 0.122-0.012 0.17-0.037s0.084-0.061 0.11-0.109c0.027-0.048 0.040-0.106 0.040-0.176v-0.926l0.019-0.266zM25.295 26.981v-0.023c0-0.092 0.011-0.176 0.032-0.251s0.054-0.141 0.095-0.195c0.042-0.054 0.092-0.096 0.151-0.125s0.125-0.045 0.199-0.045c0.076 0 0.142 0.013 0.199 0.040s0.106 0.064 0.145 0.115c0.040 0.050 0.072 0.11 0.095 0.181s0.039 0.151 0.048 0.24v0.103c-0.008 0.088-0.024 0.168-0.048 0.239s-0.055 0.131-0.095 0.181c-0.039 0.050-0.088 0.088-0.145 0.115s-0.124 0.039-0.201 0.039c-0.072 0-0.138-0.015-0.196-0.046s-0.108-0.073-0.15-0.128c-0.042-0.055-0.074-0.12-0.096-0.194s-0.032-0.157-0.032-0.244zM25.501 26.958v0.023c0 0.060 0.006 0.117 0.018 0.17s0.032 0.099 0.057 0.139c0.026 0.040 0.059 0.072 0.099 0.095s0.088 0.034 0.144 0.034c0.068 0 0.125-0.015 0.17-0.044s0.080-0.067 0.106-0.115c0.027-0.048 0.048-0.099 0.063-0.155v-0.269c-0.008-0.041-0.021-0.080-0.038-0.118s-0.038-0.073-0.065-0.103c-0.026-0.031-0.058-0.055-0.097-0.073s-0.084-0.027-0.136-0.027c-0.057 0-0.105 0.012-0.146 0.036s-0.073 0.055-0.099 0.096c-0.025 0.040-0.044 0.087-0.057 0.141s-0.018 0.109-0.018 0.17zM26.897 26.364v1.208h-0.208v-1.208h0.208zM26.674 26.044c0-0.034 0.010-0.062 0.030-0.085s0.051-0.035 0.091-0.035c0.039 0 0.070 0.011 0.090 0.035s0.032 0.051 0.032 0.085c0 0.032-0.011 0.059-0.032 0.083s-0.051 0.033-0.090 0.033c-0.040 0-0.071-0.011-0.091-0.033s-0.030-0.051-0.030-0.083zM27.78 26.364v0.158h-0.653v-0.158h0.653zM27.348 26.070h0.207v1.202c0 0.041 0.006 0.072 0.019 0.093s0.029 0.035 0.049 0.041 0.042 0.010 0.065 0.010c0.017 0 0.035-0.001 0.054-0.004s0.034-0.007 0.044-0.009l0.001 0.169c-0.016 0.005-0.038 0.010-0.065 0.015s-0.058 0.008-0.095 0.008c-0.051 0-0.097-0.010-0.14-0.030s-0.076-0.054-0.102-0.1c-0.025-0.048-0.037-0.112-0.037-0.192v-1.201zM28.78 27.365v-0.622c0-0.048-0.010-0.089-0.029-0.124s-0.047-0.063-0.085-0.083c-0.038-0.019-0.085-0.029-0.141-0.029-0.052 0-0.098 0.009-0.137 0.027s-0.069 0.041-0.092 0.070c-0.022 0.029-0.032 0.060-0.032 0.094h-0.206c0-0.043 0.011-0.086 0.033-0.128s0.054-0.081 0.096-0.115c0.042-0.035 0.093-0.063 0.152-0.083s0.126-0.031 0.199-0.031c0.088 0 0.165 0.015 0.232 0.045s0.121 0.075 0.158 0.135c0.039 0.060 0.058 0.134 0.058 0.224v0.562c0 0.040 0.003 0.083 0.010 0.128s0.018 0.084 0.032 0.117v0.018h-0.215c-0.010-0.024-0.019-0.055-0.025-0.095s-0.009-0.077-0.009-0.112zM28.816 26.839l0.002 0.145h-0.209c-0.059 0-0.111 0.005-0.157 0.014s-0.085 0.023-0.116 0.041-0.055 0.042-0.071 0.070c-0.016 0.028-0.025 0.060-0.025 0.097s0.009 0.073 0.026 0.104c0.017 0.031 0.043 0.056 0.077 0.075s0.078 0.027 0.128 0.027c0.063 0 0.119-0.013 0.167-0.040s0.087-0.059 0.115-0.098c0.029-0.039 0.045-0.076 0.047-0.113l0.088 0.099c-0.005 0.031-0.019 0.066-0.042 0.104s-0.054 0.074-0.093 0.109c-0.038 0.034-0.083 0.063-0.136 0.086s-0.111 0.033-0.176 0.033c-0.082 0-0.154-0.016-0.215-0.048s-0.109-0.075-0.143-0.128c-0.033-0.054-0.050-0.115-0.050-0.182 0-0.065 0.013-0.122 0.038-0.171s0.062-0.091 0.109-0.124c0.048-0.033 0.105-0.059 0.172-0.076s0.142-0.026 0.224-0.026h0.24zM29.581 25.857v1.714h-0.208v-1.714h0.208zM31.354 26.364h0.188v1.182c0 0.106-0.022 0.197-0.065 0.272s-0.103 0.132-0.181 0.171c-0.077 0.039-0.165 0.059-0.266 0.059-0.042 0-0.091-0.007-0.147-0.020s-0.111-0.035-0.165-0.066c-0.054-0.030-0.099-0.072-0.135-0.124l0.108-0.123c0.051 0.061 0.103 0.103 0.159 0.127s0.111 0.036 0.165 0.036c0.065 0 0.122-0.012 0.17-0.037s0.084-0.061 0.11-0.109c0.027-0.048 0.040-0.106 0.040-0.176v-0.926l0.019-0.266zM30.522 26.981v-0.023c0-0.092 0.011-0.176 0.032-0.251s0.054-0.141 0.095-0.195c0.042-0.054 0.092-0.096 0.151-0.125s0.125-0.045 0.199-0.045c0.076 0 0.142 0.013 0.199 0.040s0.106 0.064 0.145 0.115c0.040 0.050 0.072 0.11 0.095 0.181s0.039 0.151 0.048 0.24v0.103c-0.008 0.088-0.024 0.168-0.048 0.239s-0.055 0.131-0.095 0.181c-0.039 0.050-0.088 0.088-0.145 0.115s-0.124 0.039-0.201 0.039c-0.072 0-0.138-0.015-0.196-0.046s-0.108-0.073-0.15-0.128c-0.042-0.055-0.074-0.12-0.096-0.194s-0.032-0.157-0.032-0.244zM30.729 26.958v0.023c0 0.060 0.006 0.117 0.018 0.17s0.032 0.099 0.057 0.139c0.026 0.040 0.059 0.072 0.099 0.095s0.088 0.034 0.144 0.034c0.068 0 0.125-0.015 0.17-0.044s0.080-0.067 0.106-0.115c0.027-0.048 0.048-0.099 0.063-0.155v-0.269c-0.008-0.041-0.021-0.080-0.038-0.118s-0.038-0.073-0.065-0.103c-0.026-0.031-0.058-0.055-0.097-0.073s-0.084-0.027-0.136-0.027c-0.057 0-0.105 0.012-0.146 0.036s-0.073 0.055-0.099 0.096c-0.025 0.040-0.044 0.087-0.057 0.141s-0.018 0.109-0.018 0.17zM32.107 26.554v1.018h-0.206v-1.208h0.201l0.006 0.19zM32.484 26.357l-0.001 0.192c-0.017-0.004-0.033-0.006-0.049-0.007s-0.032-0.002-0.051-0.002c-0.048 0-0.090 0.007-0.126 0.022s-0.067 0.036-0.093 0.062c-0.025 0.027-0.045 0.059-0.060 0.096s-0.023 0.077-0.028 0.121l-0.058 0.033c0-0.073 0.007-0.141 0.021-0.205s0.038-0.121 0.068-0.17c0.031-0.050 0.069-0.089 0.116-0.116s0.104-0.042 0.17-0.042c0.015 0 0.032 0.002 0.051 0.006s0.033 0.006 0.040 0.010zM32.644 26.981v-0.026c0-0.087 0.013-0.168 0.038-0.242s0.062-0.14 0.109-0.195c0.048-0.056 0.105-0.099 0.173-0.129s0.144-0.047 0.228-0.047c0.085 0 0.161 0.016 0.229 0.047s0.127 0.074 0.174 0.129c0.048 0.055 0.085 0.12 0.11 0.195s0.038 0.155 0.038 0.242v0.026c0 0.087-0.013 0.168-0.038 0.242s-0.062 0.14-0.11 0.195c-0.048 0.055-0.105 0.098-0.173 0.129s-0.143 0.046-0.228 0.046-0.161-0.015-0.229-0.046c-0.068-0.031-0.126-0.074-0.174-0.129s-0.084-0.121-0.109-0.195c-0.025-0.074-0.038-0.155-0.038-0.242zM32.85 26.955v0.026c0 0.060 0.007 0.117 0.021 0.171s0.035 0.1 0.064 0.141c0.029 0.041 0.065 0.073 0.108 0.097s0.093 0.035 0.151 0.035c0.057 0 0.106-0.012 0.148-0.035s0.079-0.056 0.107-0.097c0.028-0.041 0.050-0.088 0.064-0.141s0.022-0.11 0.022-0.171v-0.026c0-0.060-0.007-0.116-0.022-0.169s-0.036-0.101-0.065-0.142c-0.028-0.042-0.064-0.074-0.107-0.098-0.042-0.024-0.092-0.036-0.149-0.036s-0.106 0.012-0.15 0.036c-0.042 0.024-0.078 0.057-0.107 0.098s-0.050 0.088-0.064 0.142c-0.014 0.053-0.021 0.109-0.021 0.169zM34.353 27.357l0.31-0.993h0.136l-0.027 0.198-0.316 1.010h-0.133l0.029-0.214zM34.145 26.364l0.265 1.004 0.019 0.203h-0.139l-0.35-1.208h0.206zM35.097 27.36l0.252-0.997h0.205l-0.35 1.208h-0.138l0.031-0.211zM34.83 26.364l0.304 0.977 0.035 0.231h-0.132l-0.325-1.012-0.027-0.195h0.145zM36.318 26.364v0.158h-0.653v-0.158h0.653zM35.886 26.070h0.207v1.202c0 0.041 0.006 0.072 0.019 0.093s0.029 0.035 0.049 0.041c0.020 0.007 0.042 0.010 0.065 0.010 0.017 0 0.035-0.001 0.054-0.004s0.034-0.007 0.044-0.009l0.001 0.169c-0.016 0.005-0.038 0.010-0.065 0.015s-0.058 0.008-0.095 0.008c-0.051 0-0.097-0.010-0.14-0.030s-0.076-0.054-0.102-0.1c-0.025-0.048-0.037-0.112-0.037-0.192v-1.201zM36.812 25.857v1.714h-0.206v-1.714h0.206zM36.763 26.922l-0.086-0.003c0.001-0.083 0.013-0.159 0.037-0.229s0.057-0.132 0.1-0.184 0.094-0.092 0.154-0.121c0.060-0.029 0.127-0.043 0.2-0.043 0.059 0 0.113 0.008 0.161 0.024s0.088 0.041 0.122 0.076c0.034 0.035 0.060 0.080 0.078 0.136s0.027 0.122 0.027 0.202v0.791h-0.208v-0.794c0-0.063-0.009-0.114-0.028-0.152s-0.046-0.067-0.081-0.084c-0.036-0.018-0.080-0.027-0.132-0.027s-0.098 0.011-0.141 0.032c-0.042 0.022-0.078 0.051-0.108 0.089s-0.053 0.081-0.070 0.131c-0.016 0.048-0.024 0.1-0.024 0.154zM0.103 30.41v-0.026c0-0.087 0.013-0.168 0.038-0.242s0.062-0.14 0.109-0.195c0.048-0.056 0.105-0.099 0.173-0.129s0.144-0.047 0.228-0.047c0.085 0 0.161 0.016 0.229 0.047s0.127 0.074 0.174 0.129c0.048 0.055 0.085 0.12 0.111 0.195s0.038 0.155 0.038 0.242v0.026c0 0.087-0.013 0.168-0.038 0.242s-0.062 0.14-0.111 0.195c-0.048 0.055-0.105 0.098-0.173 0.129s-0.143 0.046-0.228 0.046-0.161-0.015-0.229-0.046c-0.068-0.031-0.126-0.074-0.174-0.129s-0.084-0.121-0.109-0.195c-0.025-0.074-0.038-0.155-0.038-0.242zM0.309 30.384v0.026c0 0.060 0.007 0.117 0.021 0.171s0.035 0.1 0.064 0.141c0.029 0.041 0.065 0.073 0.108 0.097s0.093 0.035 0.151 0.035c0.057 0 0.106-0.012 0.148-0.035s0.079-0.056 0.107-0.097c0.028-0.041 0.049-0.088 0.064-0.141s0.022-0.11 0.022-0.171v-0.026c0-0.060-0.007-0.116-0.022-0.169s-0.036-0.101-0.065-0.142c-0.028-0.042-0.064-0.074-0.107-0.098s-0.092-0.036-0.15-0.036c-0.057 0-0.106 0.012-0.15 0.036s-0.078 0.057-0.107 0.098c-0.028 0.041-0.049 0.088-0.064 0.142s-0.021 0.109-0.021 0.169zM1.713 30.025v1.44h-0.208v-1.672h0.19l0.018 0.232zM2.527 30.386v0.023c0 0.088-0.010 0.169-0.031 0.244s-0.051 0.139-0.091 0.194c-0.039 0.055-0.088 0.098-0.146 0.128s-0.125 0.046-0.2 0.046c-0.077 0-0.144-0.013-0.203-0.038s-0.109-0.062-0.15-0.111c-0.041-0.048-0.074-0.106-0.098-0.174s-0.040-0.144-0.049-0.229v-0.125c0.009-0.089 0.026-0.169 0.050-0.24s0.057-0.131 0.097-0.181c0.041-0.051 0.090-0.089 0.148-0.115s0.125-0.040 0.201-0.040 0.143 0.015 0.202 0.045c0.059 0.029 0.108 0.071 0.148 0.125s0.070 0.119 0.090 0.195c0.021 0.075 0.031 0.159 0.031 0.251zM2.319 30.41v-0.023c0-0.060-0.006-0.117-0.019-0.17s-0.032-0.101-0.059-0.141c-0.026-0.041-0.060-0.073-0.1-0.096s-0.090-0.036-0.146-0.036c-0.052 0-0.097 0.009-0.136 0.027s-0.070 0.042-0.097 0.073c-0.027 0.030-0.049 0.064-0.066 0.103s-0.029 0.077-0.037 0.118v0.289c0.015 0.052 0.036 0.101 0.063 0.147s0.063 0.082 0.107 0.111c0.045 0.027 0.101 0.041 0.169 0.041 0.056 0 0.104-0.012 0.144-0.035s0.074-0.056 0.1-0.097c0.027-0.041 0.046-0.088 0.059-0.141s0.019-0.11 0.019-0.171zM3.042 30.025v1.44h-0.208v-1.672h0.19l0.018 0.232zM3.856 30.386v0.023c0 0.088-0.010 0.169-0.031 0.244s-0.051 0.139-0.091 0.194c-0.039 0.055-0.088 0.098-0.146 0.128s-0.125 0.046-0.2 0.046c-0.077 0-0.144-0.013-0.203-0.038s-0.109-0.062-0.15-0.111c-0.041-0.048-0.074-0.106-0.098-0.174s-0.040-0.144-0.049-0.229v-0.125c0.009-0.089 0.026-0.169 0.050-0.24s0.057-0.131 0.097-0.181c0.041-0.051 0.090-0.089 0.148-0.115s0.125-0.040 0.201-0.040 0.143 0.015 0.202 0.045c0.059 0.029 0.108 0.071 0.148 0.125s0.070 0.119 0.090 0.195c0.021 0.075 0.031 0.159 0.031 0.251zM3.648 30.41v-0.023c0-0.060-0.006-0.117-0.019-0.17s-0.032-0.101-0.059-0.141c-0.026-0.041-0.060-0.073-0.1-0.096s-0.090-0.036-0.146-0.036c-0.052 0-0.097 0.009-0.136 0.027s-0.070 0.042-0.097 0.073c-0.027 0.030-0.049 0.064-0.066 0.103s-0.029 0.077-0.037 0.118v0.289c0.015 0.052 0.036 0.101 0.063 0.147s0.063 0.082 0.107 0.111c0.045 0.027 0.101 0.041 0.169 0.041 0.056 0 0.104-0.012 0.144-0.035s0.074-0.056 0.1-0.097c0.027-0.041 0.046-0.088 0.059-0.141s0.019-0.11 0.019-0.171zM4.11 30.41v-0.026c0-0.087 0.013-0.168 0.038-0.242s0.062-0.14 0.109-0.195c0.048-0.056 0.105-0.099 0.173-0.129s0.144-0.047 0.228-0.047c0.085 0 0.161 0.016 0.229 0.047s0.127 0.074 0.174 0.129c0.048 0.055 0.085 0.12 0.111 0.195s0.038 0.155 0.038 0.242v0.026c0 0.087-0.013 0.168-0.038 0.242s-0.062 0.14-0.111 0.195c-0.048 0.055-0.105 0.098-0.173 0.129s-0.143 0.046-0.228 0.046-0.161-0.015-0.229-0.046c-0.068-0.031-0.126-0.074-0.174-0.129s-0.084-0.121-0.109-0.195c-0.025-0.074-0.038-0.155-0.038-0.242zM4.317 30.384v0.026c0 0.060 0.007 0.117 0.021 0.171s0.035 0.1 0.064 0.141c0.029 0.041 0.065 0.073 0.108 0.097s0.093 0.035 0.151 0.035c0.057 0 0.106-0.012 0.148-0.035s0.079-0.056 0.107-0.097c0.028-0.041 0.050-0.088 0.064-0.141s0.022-0.11 0.022-0.171v-0.026c0-0.060-0.007-0.116-0.022-0.169s-0.036-0.101-0.065-0.142c-0.028-0.042-0.064-0.074-0.107-0.098s-0.092-0.036-0.15-0.036c-0.057 0-0.106 0.012-0.15 0.036s-0.078 0.057-0.107 0.098c-0.028 0.041-0.050 0.088-0.064 0.142s-0.021 0.109-0.021 0.169zM5.721 29.982v1.018h-0.206v-1.208h0.201l0.006 0.19zM6.098 29.786l-0.001 0.192c-0.017-0.004-0.033-0.006-0.049-0.007s-0.032-0.002-0.051-0.002c-0.048 0-0.090 0.007-0.126 0.022s-0.067 0.036-0.093 0.062-0.045 0.059-0.060 0.096c-0.014 0.036-0.023 0.077-0.028 0.121l-0.058 0.033c0-0.073 0.007-0.141 0.021-0.205s0.038-0.121 0.068-0.17c0.030-0.050 0.069-0.089 0.116-0.116s0.104-0.042 0.17-0.042c0.015 0 0.032 0.002 0.051 0.006s0.033 0.006 0.040 0.010zM6.896 29.792v0.158h-0.653v-0.158h0.653zM6.464 29.499h0.206v1.202c0 0.041 0.006 0.072 0.019 0.093s0.029 0.035 0.049 0.041c0.020 0.007 0.042 0.010 0.065 0.010 0.017 0 0.035-0.001 0.054-0.004s0.034-0.007 0.044-0.009l0.001 0.169c-0.016 0.005-0.038 0.010-0.065 0.015s-0.058 0.008-0.095 0.008c-0.051 0-0.097-0.010-0.139-0.030s-0.076-0.054-0.102-0.1c-0.025-0.048-0.037-0.112-0.037-0.192v-1.201zM7.923 30.721v-0.929h0.208v1.208h-0.198l-0.010-0.279zM7.962 30.467l0.086-0.002c0 0.080-0.009 0.155-0.026 0.223s-0.043 0.127-0.080 0.176-0.086 0.089-0.146 0.117c-0.060 0.028-0.134 0.041-0.22 0.041-0.059 0-0.113-0.009-0.162-0.026s-0.090-0.044-0.125-0.079-0.062-0.082-0.082-0.14c-0.019-0.057-0.028-0.126-0.028-0.206v-0.779h0.206v0.781c0 0.054 0.006 0.099 0.018 0.135s0.029 0.063 0.050 0.084c0.022 0.020 0.045 0.034 0.071 0.042s0.054 0.012 0.083 0.012c0.088 0 0.157-0.017 0.209-0.050s0.088-0.080 0.111-0.137c0.023-0.058 0.035-0.122 0.035-0.193zM8.697 30.050v0.95h-0.206v-1.208h0.195l0.011 0.258zM8.648 30.35l-0.086-0.003c0.001-0.083 0.013-0.159 0.037-0.229s0.057-0.132 0.1-0.184 0.095-0.092 0.154-0.121c0.060-0.029 0.127-0.043 0.2-0.043 0.060 0 0.113 0.008 0.161 0.024s0.088 0.041 0.122 0.076c0.034 0.035 0.060 0.080 0.078 0.136s0.027 0.122 0.027 0.202v0.791h-0.208v-0.794c0-0.063-0.009-0.114-0.028-0.152s-0.046-0.067-0.081-0.084c-0.036-0.018-0.080-0.027-0.132-0.027s-0.098 0.011-0.141 0.032c-0.042 0.022-0.078 0.051-0.108 0.089s-0.053 0.081-0.070 0.131c-0.016 0.048-0.025 0.1-0.025 0.154zM10.024 29.792v1.208h-0.208v-1.208h0.208zM9.801 29.472c0-0.034 0.010-0.062 0.030-0.085s0.051-0.035 0.091-0.035c0.039 0 0.070 0.011 0.090 0.035s0.032 0.051 0.032 0.085c0 0.032-0.011 0.059-0.032 0.083s-0.051 0.033-0.090 0.033c-0.040 0-0.071-0.011-0.091-0.033s-0.030-0.051-0.030-0.083zM10.907 29.792v0.158h-0.653v-0.158h0.653zM10.475 29.499h0.206v1.202c0 0.041 0.006 0.072 0.019 0.093s0.029 0.035 0.049 0.041c0.020 0.007 0.042 0.010 0.065 0.010 0.017 0 0.035-0.001 0.054-0.004s0.034-0.007 0.044-0.009l0.001 0.169c-0.016 0.005-0.038 0.010-0.065 0.015s-0.058 0.008-0.095 0.008c-0.051 0-0.097-0.010-0.139-0.030s-0.076-0.054-0.102-0.1c-0.025-0.048-0.037-0.112-0.037-0.192v-1.201zM11.419 29.792v1.208h-0.208v-1.208h0.208zM11.196 29.472c0-0.034 0.010-0.062 0.030-0.085s0.051-0.035 0.091-0.035c0.039 0 0.070 0.011 0.090 0.035s0.032 0.051 0.032 0.085c0 0.032-0.011 0.059-0.032 0.083s-0.051 0.033-0.090 0.033c-0.040 0-0.071-0.011-0.091-0.033s-0.030-0.051-0.030-0.083zM12.297 31.022c-0.084 0-0.16-0.014-0.229-0.042s-0.126-0.070-0.175-0.122c-0.048-0.052-0.086-0.114-0.112-0.185s-0.039-0.15-0.039-0.234v-0.047c0-0.098 0.014-0.186 0.044-0.262s0.068-0.143 0.118-0.196 0.106-0.094 0.17-0.122c0.063-0.028 0.129-0.041 0.196-0.041 0.086 0 0.161 0.015 0.223 0.045s0.115 0.071 0.155 0.125c0.040 0.053 0.070 0.115 0.089 0.188s0.029 0.15 0.029 0.234v0.093h-0.902v-0.169h0.695v-0.016c-0.003-0.054-0.014-0.106-0.033-0.156s-0.048-0.092-0.089-0.125-0.097-0.049-0.167-0.049c-0.047 0-0.090 0.010-0.129 0.030s-0.073 0.048-0.102 0.087c-0.028 0.039-0.050 0.086-0.066 0.142s-0.023 0.12-0.023 0.193v0.047c0 0.057 0.008 0.111 0.023 0.162s0.040 0.094 0.070 0.132c0.031 0.038 0.069 0.068 0.113 0.089s0.095 0.032 0.152 0.032c0.073 0 0.135-0.015 0.185-0.045s0.095-0.070 0.133-0.119l0.125 0.099c-0.026 0.039-0.059 0.077-0.099 0.113s-0.090 0.065-0.148 0.087c-0.058 0.022-0.127 0.033-0.206 0.033zM13.757 30.68c0-0.030-0.007-0.057-0.020-0.083s-0.039-0.050-0.079-0.070c-0.039-0.022-0.099-0.040-0.179-0.056-0.067-0.014-0.128-0.031-0.182-0.050s-0.099-0.043-0.137-0.070c-0.037-0.028-0.066-0.060-0.086-0.097s-0.030-0.081-0.030-0.131c0-0.048 0.010-0.093 0.031-0.135s0.052-0.080 0.090-0.113c0.039-0.033 0.087-0.058 0.142-0.077s0.116-0.028 0.184-0.028c0.097 0 0.179 0.017 0.248 0.051s0.121 0.080 0.157 0.137c0.036 0.057 0.055 0.119 0.055 0.189h-0.206c0-0.033-0.010-0.066-0.030-0.097s-0.048-0.058-0.086-0.079c-0.037-0.021-0.083-0.031-0.137-0.031-0.057 0-0.104 0.009-0.139 0.027s-0.061 0.039-0.077 0.066c-0.016 0.027-0.023 0.055-0.023 0.085 0 0.022 0.004 0.042 0.011 0.060s0.022 0.033 0.042 0.048c0.020 0.014 0.048 0.028 0.085 0.040s0.083 0.025 0.139 0.038c0.099 0.022 0.18 0.049 0.244 0.080s0.112 0.069 0.143 0.115 0.047 0.1 0.047 0.165c0 0.053-0.011 0.101-0.033 0.145s-0.053 0.082-0.095 0.114c-0.041 0.031-0.090 0.056-0.147 0.074s-0.12 0.026-0.191 0.026c-0.106 0-0.196-0.019-0.27-0.057s-0.129-0.087-0.167-0.147c-0.038-0.060-0.057-0.124-0.057-0.191h0.208c0.003 0.056 0.019 0.102 0.049 0.135s0.066 0.056 0.109 0.070c0.043 0.013 0.086 0.020 0.128 0.020 0.057 0 0.104-0.007 0.142-0.022s0.068-0.035 0.088-0.061 0.030-0.056 0.030-0.089zM15.605 30.794v-0.622c0-0.048-0.010-0.089-0.029-0.124s-0.047-0.063-0.085-0.083c-0.038-0.019-0.085-0.029-0.141-0.029-0.052 0-0.098 0.009-0.137 0.027s-0.069 0.041-0.092 0.070c-0.022 0.029-0.032 0.060-0.032 0.094h-0.206c0-0.043 0.011-0.086 0.034-0.128s0.054-0.081 0.096-0.115c0.042-0.035 0.093-0.063 0.152-0.083s0.126-0.031 0.199-0.031c0.088 0 0.165 0.015 0.232 0.045s0.12 0.075 0.158 0.135c0.039 0.060 0.058 0.134 0.058 0.224v0.562c0 0.040 0.003 0.083 0.010 0.128 0.008 0.045 0.018 0.084 0.032 0.117v0.018h-0.215c-0.010-0.024-0.019-0.055-0.025-0.095s-0.009-0.077-0.009-0.112zM15.641 30.268l0.002 0.145h-0.209c-0.059 0-0.111 0.005-0.157 0.014s-0.085 0.023-0.116 0.041c-0.031 0.019-0.055 0.042-0.071 0.070s-0.024 0.060-0.024 0.097c0 0.038 0.008 0.073 0.026 0.104s0.043 0.056 0.077 0.075c0.035 0.018 0.078 0.027 0.128 0.027 0.063 0 0.119-0.013 0.167-0.040s0.087-0.059 0.115-0.098c0.029-0.039 0.045-0.076 0.047-0.113l0.088 0.099c-0.005 0.031-0.019 0.066-0.042 0.104s-0.054 0.074-0.093 0.109c-0.038 0.034-0.083 0.063-0.136 0.086s-0.111 0.033-0.176 0.033c-0.082 0-0.154-0.016-0.215-0.048s-0.109-0.075-0.143-0.128c-0.033-0.054-0.050-0.115-0.050-0.182 0-0.065 0.013-0.122 0.038-0.171s0.062-0.091 0.109-0.124c0.048-0.033 0.105-0.059 0.172-0.076s0.142-0.026 0.224-0.026h0.24zM16.389 30.050v0.95h-0.206v-1.208h0.195l0.011 0.258zM16.34 30.35l-0.086-0.003c0.001-0.083 0.013-0.159 0.037-0.229s0.057-0.132 0.101-0.184c0.043-0.052 0.094-0.092 0.154-0.121s0.127-0.043 0.2-0.043c0.060 0 0.113 0.008 0.161 0.024s0.088 0.041 0.122 0.076c0.034 0.035 0.060 0.080 0.078 0.136s0.027 0.122 0.027 0.202v0.791h-0.208v-0.794c0-0.063-0.009-0.114-0.028-0.152s-0.046-0.067-0.082-0.084c-0.036-0.018-0.080-0.027-0.132-0.027s-0.098 0.011-0.141 0.032c-0.042 0.022-0.078 0.051-0.108 0.089s-0.053 0.081-0.070 0.131c-0.016 0.048-0.025 0.1-0.025 0.154zM18.253 30.766v-1.48h0.208v1.714h-0.19l-0.018-0.234zM17.44 30.41v-0.023c0-0.092 0.011-0.176 0.033-0.251s0.055-0.141 0.097-0.195c0.042-0.054 0.093-0.096 0.151-0.125s0.124-0.045 0.196-0.045c0.076 0 0.142 0.013 0.199 0.040s0.106 0.064 0.145 0.115c0.040 0.050 0.072 0.11 0.095 0.181s0.039 0.151 0.048 0.24v0.103c-0.008 0.088-0.024 0.168-0.048 0.239s-0.055 0.131-0.095 0.181c-0.039 0.050-0.088 0.088-0.145 0.115s-0.124 0.039-0.201 0.039c-0.071 0-0.135-0.015-0.194-0.046s-0.108-0.073-0.151-0.128c-0.042-0.055-0.074-0.12-0.097-0.194s-0.033-0.157-0.033-0.244zM17.648 30.386v0.023c0 0.060 0.006 0.117 0.018 0.17s0.032 0.099 0.058 0.139c0.026 0.040 0.059 0.072 0.099 0.095s0.088 0.034 0.144 0.034c0.069 0 0.125-0.015 0.169-0.044s0.080-0.067 0.107-0.115c0.027-0.048 0.048-0.099 0.063-0.155v-0.269c-0.009-0.041-0.022-0.080-0.039-0.118s-0.038-0.073-0.065-0.103c-0.026-0.031-0.058-0.055-0.097-0.073s-0.083-0.027-0.135-0.027c-0.057 0-0.105 0.012-0.146 0.036s-0.073 0.055-0.099 0.096c-0.026 0.040-0.045 0.087-0.058 0.141s-0.018 0.109-0.018 0.17zM19.645 30.032v0.968h-0.208v-1.208h0.196l0.011 0.24zM19.603 30.35l-0.096-0.003c0.001-0.083 0.012-0.159 0.032-0.229s0.052-0.132 0.093-0.184c0.041-0.052 0.092-0.092 0.153-0.121s0.132-0.043 0.212-0.043c0.057 0 0.109 0.008 0.156 0.024s0.089 0.041 0.124 0.075c0.035 0.034 0.062 0.078 0.081 0.132s0.029 0.118 0.029 0.194v0.805h-0.206v-0.795c0-0.063-0.011-0.114-0.032-0.152s-0.051-0.065-0.089-0.083c-0.039-0.018-0.084-0.027-0.136-0.027-0.061 0-0.112 0.011-0.153 0.032s-0.074 0.051-0.098 0.089-0.042 0.081-0.054 0.131c-0.010 0.048-0.016 0.1-0.016 0.154zM20.385 30.237l-0.138 0.042c0.001-0.066 0.011-0.13 0.032-0.191s0.052-0.115 0.093-0.163c0.041-0.048 0.091-0.085 0.151-0.113s0.128-0.042 0.204-0.042c0.065 0 0.122 0.009 0.172 0.026s0.093 0.044 0.127 0.079c0.035 0.035 0.061 0.080 0.079 0.135s0.027 0.121 0.027 0.196v0.794h-0.208v-0.796c0-0.068-0.011-0.12-0.032-0.157s-0.051-0.064-0.089-0.079c-0.038-0.016-0.083-0.023-0.136-0.023-0.045 0-0.086 0.008-0.121 0.023s-0.064 0.037-0.088 0.065c-0.024 0.027-0.042 0.058-0.055 0.093s-0.018 0.072-0.018 0.112zM21.715 29.792v1.208h-0.208v-1.208h0.208zM21.491 29.472c0-0.034 0.010-0.062 0.030-0.085s0.051-0.035 0.092-0.035c0.039 0 0.070 0.011 0.090 0.035s0.032 0.051 0.032 0.085c0 0.032-0.011 0.059-0.032 0.083s-0.051 0.033-0.090 0.033c-0.040 0-0.071-0.011-0.092-0.033s-0.030-0.051-0.030-0.083zM22.298 30.050v0.95h-0.206v-1.208h0.195l0.011 0.258zM22.249 30.35l-0.086-0.003c0.001-0.083 0.013-0.159 0.037-0.229s0.057-0.132 0.1-0.184 0.095-0.092 0.154-0.121c0.060-0.029 0.127-0.043 0.2-0.043 0.059 0 0.113 0.008 0.161 0.024s0.088 0.041 0.122 0.076c0.034 0.035 0.060 0.080 0.078 0.136s0.027 0.122 0.027 0.202v0.791h-0.208v-0.794c0-0.063-0.009-0.114-0.028-0.152s-0.046-0.067-0.081-0.084c-0.036-0.018-0.080-0.027-0.132-0.027s-0.098 0.011-0.141 0.032c-0.042 0.022-0.078 0.051-0.108 0.089s-0.053 0.081-0.070 0.131c-0.016 0.048-0.025 0.1-0.025 0.154zM23.625 29.792v1.208h-0.208v-1.208h0.208zM23.402 29.472c0-0.034 0.010-0.062 0.030-0.085s0.051-0.035 0.091-0.035c0.039 0 0.070 0.011 0.090 0.035s0.032 0.051 0.032 0.085c0 0.032-0.011 0.059-0.032 0.083s-0.051 0.033-0.090 0.033c-0.040 0-0.071-0.011-0.091-0.033s-0.030-0.051-0.030-0.083zM24.208 30.032v0.968h-0.208v-1.208h0.196l0.011 0.24zM24.165 30.35l-0.096-0.003c0.001-0.083 0.012-0.159 0.032-0.229s0.052-0.132 0.093-0.184c0.041-0.052 0.092-0.092 0.153-0.121s0.132-0.043 0.212-0.043c0.057 0 0.109 0.008 0.156 0.024s0.089 0.041 0.124 0.075 0.062 0.078 0.081 0.132c0.019 0.054 0.029 0.118 0.029 0.194v0.805h-0.206v-0.795c0-0.063-0.011-0.114-0.032-0.152-0.021-0.038-0.051-0.065-0.089-0.083s-0.084-0.027-0.136-0.027c-0.061 0-0.112 0.011-0.153 0.032s-0.074 0.051-0.098 0.089c-0.025 0.038-0.042 0.081-0.054 0.131s-0.016 0.1-0.016 0.154zM24.948 30.237l-0.138 0.042c0.001-0.066 0.012-0.13 0.032-0.191s0.052-0.115 0.093-0.163c0.041-0.048 0.091-0.085 0.151-0.113s0.128-0.042 0.204-0.042c0.065 0 0.122 0.009 0.172 0.026 0.051 0.017 0.093 0.044 0.127 0.079s0.061 0.080 0.079 0.135c0.018 0.055 0.027 0.121 0.027 0.196v0.794h-0.208v-0.796c0-0.068-0.011-0.12-0.032-0.157s-0.051-0.064-0.089-0.079c-0.038-0.016-0.083-0.023-0.136-0.023-0.045 0-0.085 0.008-0.12 0.023s-0.064 0.037-0.088 0.065c-0.024 0.027-0.042 0.058-0.055 0.093s-0.018 0.072-0.018 0.112zM26.277 29.792v1.208h-0.208v-1.208h0.208zM26.054 29.472c0-0.034 0.010-0.062 0.030-0.085s0.051-0.035 0.091-0.035c0.039 0 0.070 0.011 0.090 0.035s0.032 0.051 0.032 0.085c0 0.032-0.011 0.059-0.032 0.083s-0.051 0.033-0.090 0.033c-0.040 0-0.071-0.011-0.091-0.033s-0.030-0.051-0.030-0.083zM27.554 30.83v0.17h-0.878v-0.17h0.878zM27.521 29.939l-0.799 1.061h-0.126v-0.152l0.794-1.056h0.132v0.146zM27.43 29.792v0.171h-0.825v-0.171h0.825zM28.317 31.022c-0.084 0-0.16-0.014-0.229-0.042s-0.126-0.070-0.175-0.122c-0.048-0.052-0.086-0.114-0.112-0.185s-0.039-0.15-0.039-0.234v-0.047c0-0.098 0.015-0.186 0.044-0.262s0.068-0.143 0.118-0.196 0.106-0.094 0.17-0.122c0.063-0.028 0.129-0.041 0.196-0.041 0.086 0 0.161 0.015 0.223 0.045s0.115 0.071 0.155 0.125c0.040 0.053 0.070 0.115 0.089 0.188s0.029 0.15 0.029 0.234v0.093h-0.902v-0.169h0.695v-0.016c-0.003-0.054-0.014-0.106-0.033-0.156s-0.048-0.092-0.089-0.125c-0.041-0.033-0.097-0.049-0.167-0.049-0.047 0-0.090 0.010-0.129 0.030s-0.073 0.048-0.102 0.087c-0.028 0.039-0.050 0.086-0.066 0.142s-0.023 0.12-0.023 0.193v0.047c0 0.057 0.008 0.111 0.023 0.162s0.040 0.094 0.070 0.132c0.031 0.038 0.069 0.068 0.113 0.089s0.095 0.032 0.152 0.032c0.073 0 0.135-0.015 0.185-0.045s0.095-0.070 0.133-0.119l0.125 0.099c-0.026 0.039-0.059 0.077-0.099 0.113s-0.090 0.065-0.148 0.087c-0.058 0.022-0.127 0.033-0.206 0.033zM29.893 29.982v1.018h-0.206v-1.208h0.201l0.006 0.19zM30.27 29.786l-0.001 0.192c-0.017-0.004-0.033-0.006-0.049-0.007s-0.032-0.002-0.051-0.002c-0.048 0-0.090 0.007-0.126 0.022s-0.067 0.036-0.093 0.062-0.045 0.059-0.060 0.096c-0.014 0.036-0.023 0.077-0.028 0.121l-0.058 0.033c0-0.073 0.007-0.141 0.021-0.205s0.038-0.121 0.068-0.17c0.031-0.050 0.069-0.089 0.116-0.116s0.104-0.042 0.17-0.042c0.015 0 0.032 0.002 0.051 0.006s0.033 0.006 0.040 0.010zM30.731 29.792v1.208h-0.208v-1.208h0.208zM30.508 29.472c0-0.034 0.010-0.062 0.030-0.085s0.051-0.035 0.091-0.035c0.039 0 0.070 0.011 0.090 0.035s0.032 0.051 0.032 0.085c0 0.032-0.011 0.059-0.032 0.083s-0.051 0.033-0.090 0.033c-0.040 0-0.071-0.011-0.091-0.033s-0.030-0.051-0.030-0.083zM31.811 30.68c0-0.030-0.007-0.057-0.020-0.083s-0.039-0.050-0.079-0.070c-0.039-0.022-0.099-0.040-0.179-0.056-0.067-0.014-0.128-0.031-0.182-0.050s-0.099-0.043-0.137-0.070c-0.037-0.028-0.066-0.060-0.086-0.097s-0.030-0.081-0.030-0.131c0-0.048 0.010-0.093 0.031-0.135s0.052-0.080 0.090-0.113c0.039-0.033 0.087-0.058 0.142-0.077s0.116-0.028 0.184-0.028c0.097 0 0.179 0.017 0.248 0.051s0.121 0.080 0.157 0.137c0.036 0.057 0.055 0.119 0.055 0.189h-0.207c0-0.033-0.010-0.066-0.030-0.097s-0.048-0.058-0.086-0.079c-0.037-0.021-0.083-0.031-0.137-0.031-0.057 0-0.104 0.009-0.14 0.027s-0.061 0.039-0.077 0.066c-0.016 0.027-0.023 0.055-0.023 0.085 0 0.022 0.004 0.042 0.011 0.060s0.022 0.033 0.042 0.048c0.020 0.014 0.048 0.028 0.085 0.040s0.083 0.025 0.14 0.038c0.099 0.022 0.18 0.049 0.244 0.080s0.112 0.069 0.143 0.115c0.031 0.045 0.047 0.1 0.047 0.165 0 0.053-0.011 0.101-0.034 0.145s-0.053 0.082-0.095 0.114c-0.041 0.031-0.090 0.056-0.147 0.074s-0.12 0.026-0.191 0.026c-0.106 0-0.196-0.019-0.27-0.057s-0.129-0.087-0.167-0.147c-0.038-0.060-0.057-0.124-0.057-0.191h0.208c0.003 0.056 0.019 0.102 0.049 0.135s0.066 0.056 0.109 0.070c0.043 0.013 0.086 0.020 0.128 0.020 0.057 0 0.104-0.007 0.142-0.022s0.068-0.035 0.088-0.061c0.020-0.026 0.030-0.056 0.030-0.089zM32.542 29.286v1.714h-0.208v-1.714h0.208zM33.28 29.792l-0.527 0.564-0.295 0.306-0.017-0.22 0.211-0.252 0.375-0.397h0.252zM33.091 31l-0.431-0.576 0.107-0.184 0.567 0.76h-0.243zM33.542 30.891c0-0.035 0.011-0.064 0.032-0.088s0.054-0.037 0.096-0.037c0.042 0 0.073 0.012 0.095 0.037s0.034 0.053 0.034 0.088c0 0.034-0.011 0.063-0.034 0.087s-0.053 0.036-0.095 0.036c-0.042 0-0.074-0.012-0.096-0.036s-0.032-0.053-0.032-0.087z"></path>
</symbol>
<symbol id="icon-astronaut-1" viewBox="0 0 32 32">
<path fill="#4d5ae5" style="fill: var(--color2, #4d5ae5)" d="M31.974 4.524c-0.063-0.193-0.229-0.333-0.43-0.363l-1.91-0.278-0.855-1.731c-0.179-0.365-0.777-0.365-0.956 0l-0.855 1.731-1.91 0.278c-0.201 0.029-0.367 0.17-0.431 0.363-0.062 0.193-0.011 0.405 0.135 0.547l1.383 1.348-0.326 1.903c-0.034 0.2 0.048 0.402 0.212 0.522 0.166 0.121 0.382 0.135 0.562 0.040l1.709-0.899 1.709 0.899c0.078 0.041 0.164 0.061 0.249 0.061 0.11 0 0.221-0.034 0.314-0.102 0.164-0.119 0.246-0.322 0.212-0.522l-0.326-1.903 1.383-1.348c0.145-0.142 0.197-0.354 0.135-0.547zM29.511 5.851c-0.125 0.122-0.183 0.299-0.153 0.472l0.191 1.114-1-0.526c-0.078-0.041-0.163-0.061-0.249-0.061s-0.17 0.020-0.249 0.061l-1.001 0.526 0.191-1.114c0.030-0.173-0.028-0.349-0.153-0.472l-0.81-0.789 1.119-0.163c0.174-0.025 0.324-0.134 0.402-0.292l0.5-1.013 0.5 1.013c0.078 0.157 0.228 0.267 0.402 0.292l1.119 0.163-0.809 0.789z"></path>
<path fill="#4d5ae5" style="fill: var(--color2, #4d5ae5)" d="M26.134 20.522h-1.067v1.067h1.067v-1.067z"></path>
<path fill="#4d5ae5" style="fill: var(--color2, #4d5ae5)" d="M26.134 22.656h-1.067v1.067h1.067v-1.067z"></path>
<path fill="#4d5ae5" style="fill: var(--color2, #4d5ae5)" d="M27.2 21.589h-1.067v1.067h1.067v-1.067z"></path>
<path fill="#4d5ae5" style="fill: var(--color2, #4d5ae5)" d="M25.067 21.589h-1.067v1.067h1.067v-1.067z"></path>
<path fill="#4d5ae5" style="fill: var(--color2, #4d5ae5)" d="M22.4 26.389h-1.067v1.067h1.067v-1.067z"></path>
<path fill="#4d5ae5" style="fill: var(--color2, #4d5ae5)" d="M22.4 28.522h-1.067v1.067h1.067v-1.067z"></path>
<path fill="#4d5ae5" style="fill: var(--color2, #4d5ae5)" d="M23.467 27.456h-1.067v1.067h1.067v-1.067z"></path>
<path fill="#4d5ae5" style="fill: var(--color2, #4d5ae5)" d="M21.333 27.456h-1.067v1.067h1.067v-1.067z"></path>
<path fill="#4d5ae5" style="fill: var(--color2, #4d5ae5)" d="M16 24.256h-1.067v1.067h1.067v-1.067z"></path>
<path fill="#4d5ae5" style="fill: var(--color2, #4d5ae5)" d="M16 26.389h-1.067v1.067h1.067v-1.067z"></path>
<path fill="#4d5ae5" style="fill: var(--color2, #4d5ae5)" d="M17.067 25.322h-1.067v1.067h1.067v-1.067z"></path>
<path fill="#4d5ae5" style="fill: var(--color2, #4d5ae5)" d="M14.933 25.322h-1.067v1.067h1.067v-1.067z"></path>
<path fill="#4d5ae5" style="fill: var(--color2, #4d5ae5)" d="M5.867 6.122h-1.067v1.067h1.067v-1.067z"></path>
<path fill="#4d5ae5" style="fill: var(--color2, #4d5ae5)" d="M5.867 8.255h-1.067v1.067h1.067v-1.067z"></path>
<path fill="#4d5ae5" style="fill: var(--color2, #4d5ae5)" d="M6.933 7.189h-1.067v1.067h1.067v-1.067z"></path>
<path fill="#4d5ae5" style="fill: var(--color2, #4d5ae5)" d="M4.8 7.189h-1.067v1.067h1.067v-1.067z"></path>
<path fill="#2e2f42" style="fill: var(--color1, #2e2f42)" d="M24.715 14.159c-0.287-0.388-0.709-0.637-1.188-0.705-0.481-0.068-0.956 0.058-1.34 0.352l-1.252 0.96-1.898 1.417-1.358-0.541c2.421-1.086 4.114-3.508 4.114-6.32 0-3.823-3.123-6.933-6.961-6.933s-6.961 3.11-6.961 6.933c0 1.386 0.414 2.674 1.12 3.758l-2.764-0.024c-0.002 0-0.003 0-0.005 0-0.009 0-0.015 0.004-0.023 0.005-0.053 0.002-0.105 0.013-0.155 0.031-0.013 0.005-0.026 0.008-0.038 0.013-0.006 0.003-0.013 0.003-0.019 0.006l-3.233 1.596c-0.001 0-0.001 0-0.001 0.001l-1.893 0.911c-0.021 0.009-0.042 0.021-0.063 0.035-0.755 0.502-1.012 1.489-0.598 2.295 0.22 0.429 0.595 0.745 1.056 0.889 0.178 0.055 0.359 0.083 0.539 0.083 0.29 0 0.577-0.071 0.839-0.211l1.388-0.738 2.264-1.169 1.357-0.008-5.442 5.416c-0.001 0.001-0.001 0.001-0.002 0.001l-1.339 1.333c-0.316 0.315-0.49 0.732-0.49 1.178s0.174 0.863 0.49 1.179c0.325 0.323 0.752 0.485 1.179 0.485s0.854-0.162 1.18-0.485l1.314-1.309 1.741-1.3 0.901 0.897-1.762 1.754c-0 0.001-0.001 0.001-0.002 0.001l-1.339 1.333c-0.316 0.315-0.49 0.732-0.49 1.178s0.174 0.863 0.49 1.179c0.325 0.323 0.753 0.485 1.18 0.485s0.855-0.162 1.18-0.485l3.482-3.467c0.001-0.001 0.001-0.001 0.001-0.002l1.010-1-0.004-0.004c0.006-0.006 0.015-0.009 0.022-0.015l5.166-5.658 3.471 0.494c0.025 0.004 0.050 0.005 0.075 0.005 0.065 0 0.127-0.015 0.187-0.038 0.018-0.006 0.033-0.015 0.050-0.023 0.019-0.010 0.039-0.015 0.058-0.027l3.213-2.133c0.012-0.008 0.018-0.021 0.029-0.029 0.013-0.010 0.029-0.014 0.041-0.026l1.271-1.191c0.662-0.62 0.753-1.635 0.212-2.362zM2.13 17.77c-0.173 0.093-0.37 0.111-0.558 0.052-0.187-0.058-0.338-0.186-0.427-0.358-0.161-0.314-0.068-0.695 0.214-0.902l1.314-0.632 0.449 1.313-0.992 0.527zM5.628 15.942l-1.548 0.8-0.439-1.283 2.027-1.001-0.040 1.484zM20.727 9.322c0 0.918-0.219 1.785-0.599 2.559l-4.181-1.899c-0.044-0.573-0.341-1.075-0.788-1.388l1.464-4.86c2.378 0.756 4.105 2.974 4.105 5.588zM8.938 9.322c0-3.235 2.644-5.867 5.894-5.867 0.253 0 0.5 0.021 0.745 0.052l-1.432 4.754c-0.019-0.001-0.037-0.006-0.057-0.006-1.033 0-1.873 0.837-1.873 1.867s0.84 1.867 1.873 1.867c0.694 0 1.294-0.383 1.618-0.945l3.862 1.755c-1.075 1.446-2.795 2.39-4.737 2.39-3.25 0-5.894-2.632-5.894-5.867zM14.894 10.122c0 0.441-0.362 0.8-0.806 0.8s-0.806-0.359-0.806-0.8c0-0.441 0.362-0.8 0.806-0.8s0.806 0.359 0.806 0.8zM2.465 25.146c-0.236 0.234-0.619 0.234-0.854 0.001-0.114-0.114-0.176-0.263-0.176-0.423s0.062-0.309 0.176-0.421l0.962-0.958 0.851 0.848-0.959 0.955zM5.679 28.88c-0.236 0.234-0.619 0.235-0.855 0.001-0.114-0.114-0.176-0.263-0.176-0.423s0.062-0.309 0.176-0.421l0.963-0.959 0.852 0.848-0.96 0.955zM9.16 25.411c-0.001 0-0.001 0-0.002 0.001l-1.765 1.76-0.852-0.848 1.763-1.755c0 0 0 0 0-0s0.001-0.001 0.002-0.001c0.040-0.040 0.065-0.088 0.090-0.135 0.007-0.014 0.020-0.026 0.026-0.040 0.017-0.041 0.019-0.085 0.026-0.129 0.003-0.025 0.014-0.047 0.014-0.073 0-0.036-0.013-0.070-0.020-0.106-0.006-0.032-0.006-0.065-0.019-0.095-0.020-0.050-0.055-0.094-0.091-0.138-0.010-0.012-0.014-0.027-0.025-0.038 0 0 0 0-0.001 0s-0.001-0.002-0.001-0.002l-1.607-1.6c-0.017-0.017-0.039-0.024-0.058-0.038-0.028-0.022-0.055-0.042-0.087-0.058-0.030-0.015-0.061-0.024-0.093-0.033-0.034-0.010-0.067-0.017-0.103-0.020-0.033-0.002-0.063 0.001-0.095 0.005-0.036 0.004-0.069 0.009-0.104 0.020-0.034 0.011-0.063 0.027-0.094 0.045-0.020 0.011-0.042 0.015-0.061 0.029l-1.773 1.324-0.901-0.897 2.399-2.386 4.361 4.289-0.928 0.919zM15.979 18.394c-0.015-0.002-0.030 0.004-0.045 0.003-0.039-0.002-0.076 0.001-0.115 0.007-0.030 0.005-0.059 0.011-0.088 0.021-0.034 0.012-0.065 0.028-0.097 0.047-0.030 0.018-0.057 0.037-0.083 0.061-0.013 0.011-0.028 0.017-0.040 0.029l-4.698 5.146-4.328-4.257 2.833-2.818c0.209-0.208 0.21-0.546 0.002-0.755-0.105-0.105-0.243-0.157-0.381-0.156v-0.001l-2.219 0.013 0.028-1.607 3.104 0.027c1.265 1.294 3.029 2.101 4.981 2.101 0.437 0 0.864-0.045 1.279-0.123 0.040 0.032 0.079 0.065 0.13 0.085l2.41 0.96 0.152 0.758 0.178 0.885-3.003-0.427zM20.020 18.572l-0.313-1.558 1.446-1.080 0.947 1.257-2.080 1.381zM23.774 15.741l-0.838 0.785-0.931-1.236 0.831-0.637c0.155-0.119 0.351-0.168 0.543-0.143 0.193 0.027 0.364 0.128 0.48 0.284 0.217 0.292 0.18 0.699-0.085 0.947z"></path>
<path fill="#2e2f42" style="fill: var(--color1, #2e2f42)" d="M13.602 18.544l-2.143-2.133c-0.207-0.207-0.545-0.207-0.753 0l-2.142 2.133c-0.1 0.101-0.157 0.236-0.157 0.378s0.056 0.278 0.157 0.378l2.142 2.133c0.104 0.103 0.241 0.155 0.377 0.155s0.273-0.052 0.376-0.155l2.143-2.133c0.1-0.1 0.157-0.236 0.157-0.378s-0.057-0.278-0.157-0.378zM11.083 20.303l-1.387-1.381 1.387-1.381 1.387 1.381-1.387 1.381z"></path>
<path fill="#2e2f42" style="fill: var(--color1, #2e2f42)" d="M17.164 5.071l-0.258 1.036c0.071 0.018 1.738 0.452 1.738 2.149h1.067c-0-2.017-1.666-2.965-2.547-3.185z"></path>
<path fill="#2e2f42" style="fill: var(--color1, #2e2f42)" d="M19.711 9.322h-1.067v1.067h1.067v-1.067z"></path>
</symbol>
<symbol id="icon-twitter-1" viewBox="0 0 32 32">
<path fill="#f4f4fd" style="fill: var(--color3, #f4f4fd)" d="M32 6.078c-1.19 0.522-2.458 0.868-3.78 1.036 1.36-0.812 2.398-2.088 2.886-3.626-1.268 0.756-2.668 1.29-4.16 1.588-1.204-1.282-2.92-2.076-4.792-2.076-3.632 0-6.556 2.948-6.556 6.562 0 0.52 0.044 1.020 0.152 1.496-5.454-0.266-10.28-2.88-13.522-6.862-0.566 0.982-0.898 2.106-0.898 3.316 0 2.272 1.17 4.286 2.914 5.452-1.054-0.020-2.088-0.326-2.964-0.808 0 0.020 0 0.046 0 0.072 0 3.188 2.274 5.836 5.256 6.446-0.534 0.146-1.116 0.216-1.72 0.216-0.42 0-0.844-0.024-1.242-0.112 0.85 2.598 3.262 4.508 6.13 4.57-2.232 1.746-5.066 2.798-8.134 2.798-0.538 0-1.054-0.024-1.57-0.090 2.906 1.874 6.35 2.944 10.064 2.944 12.072 0 18.672-10 18.672-18.668 0-0.29-0.010-0.57-0.024-0.848 1.302-0.924 2.396-2.078 3.288-3.406z"></path>
</symbol>
<symbol id="icon-instagram-2" viewBox="0 0 32 32">
<path fill="#f4f4fd" style="fill: var(--color3, #f4f4fd)" d="M31.969 9.408c-0.075-1.7-0.35-2.869-0.744-3.882-0.406-1.075-1.031-2.038-1.85-2.838-0.8-0.813-1.769-1.444-2.832-1.844-1.019-0.394-2.182-0.669-3.882-0.744-1.713-0.081-2.257-0.1-6.601-0.1s-4.888 0.019-6.595 0.094c-1.7 0.075-2.869 0.35-3.882 0.744-1.075 0.406-2.038 1.031-2.838 1.85-0.813 0.8-1.444 1.769-1.844 2.832-0.394 1.019-0.669 2.182-0.744 3.882-0.081 1.713-0.1 2.257-0.1 6.601s0.019 4.888 0.094 6.595c0.075 1.7 0.35 2.869 0.744 3.882 0.406 1.075 1.038 2.038 1.85 2.838 0.8 0.813 1.769 1.444 2.832 1.844 1.019 0.394 2.182 0.669 3.882 0.744 1.706 0.075 2.25 0.094 6.595 0.094s4.888-0.018 6.595-0.094c1.7-0.075 2.869-0.35 3.882-0.744 2.151-0.831 3.851-2.532 4.682-4.682 0.394-1.019 0.669-2.182 0.744-3.882 0.075-1.707 0.094-2.251 0.094-6.595s-0.006-4.888-0.081-6.595zM29.087 22.473c-0.069 1.563-0.331 2.407-0.55 2.969-0.538 1.394-1.644 2.501-3.038 3.038-0.563 0.219-1.413 0.481-2.969 0.55-1.688 0.075-2.194 0.094-6.464 0.094s-4.782-0.018-6.464-0.094c-1.563-0.069-2.407-0.331-2.969-0.55-0.694-0.256-1.325-0.663-1.838-1.194-0.531-0.519-0.938-1.144-1.194-1.838-0.219-0.563-0.481-1.413-0.55-2.969-0.075-1.688-0.094-2.194-0.094-6.464s0.019-4.782 0.094-6.464c0.069-1.563 0.331-2.407 0.55-2.969 0.256-0.694 0.663-1.325 1.2-1.838 0.519-0.531 1.144-0.938 1.838-1.194 0.563-0.219 1.413-0.481 2.969-0.55 1.688-0.075 2.194-0.094 6.464-0.094 4.276 0 4.782 0.019 6.464 0.094 1.563 0.069 2.407 0.331 2.969 0.55 0.694 0.256 1.325 0.662 1.838 1.194 0.531 0.519 0.938 1.144 1.194 1.838 0.219 0.563 0.481 1.413 0.55 2.969 0.075 1.688 0.094 2.194 0.094 6.464s-0.019 4.77-0.094 6.457z"></path>
<path fill="#f4f4fd" style="fill: var(--color3, #f4f4fd)" d="M16.059 7.782c-4.538 0-8.22 3.682-8.22 8.22s3.682 8.22 8.22 8.22c4.538 0 8.22-3.682 8.22-8.22s-3.682-8.22-8.22-8.22zM16.059 21.335c-2.944 0-5.332-2.388-5.332-5.332s2.388-5.332 5.332-5.332c2.944 0 5.332 2.388 5.332 5.332s-2.388 5.332-5.332 5.332z"></path>
<path fill="#f4f4fd" style="fill: var(--color3, #f4f4fd)" d="M26.524 7.457c0 1.060-0.859 1.919-1.919 1.919s-1.919-0.859-1.919-1.919c0-1.060 0.859-1.919 1.919-1.919s1.919 0.859 1.919 1.919z"></path>
</symbol>
<symbol id="icon-facebook-1" viewBox="0 0 32 32">
<path fill="#f4f4fd" style="fill: var(--color3, #f4f4fd)" d="M21.329 5.313h2.921v-5.088c-0.504-0.069-2.237-0.225-4.256-0.225-4.212 0-7.097 2.649-7.097 7.519v4.481h-4.648v5.688h4.648v14.312h5.699v-14.311h4.46l0.708-5.688h-5.169v-3.919c0.001-1.644 0.444-2.769 2.735-2.769z"></path>
</symbol>
<symbol id="icon-linkedin-1" viewBox="0 0 32 32">
<path fill="#f4f4fd" style="fill: var(--color3, #f4f4fd)" d="M31.992 32v-0.001h0.008v-11.736c0-5.741-1.236-10.164-7.948-10.164-3.227 0-5.392 1.771-6.276 3.449h-0.093v-2.913h-6.364v21.364h6.627v-10.579c0-2.785 0.528-5.479 3.977-5.479 3.399 0 3.449 3.179 3.449 5.657v10.401h6.62z"></path>
<path fill="#f4f4fd" style="fill: var(--color3, #f4f4fd)" d="M0.528 10.636h6.635v21.364h-6.635v-21.364z"></path>
<path fill="#f4f4fd" style="fill: var(--color3, #f4f4fd)" d="M3.843-0c-2.121 0-3.843 1.721-3.843 3.843s1.721 3.879 3.843 3.879c2.121 0 3.843-1.757 3.843-3.879-0.001-2.121-1.723-3.843-3.843-3.843v0z"></path>
</symbol>
<symbol id="icon-linkedin-11" viewBox="0 0 32 32">
<path fill="#f4f4fd" style="fill: var(--color3, #f4f4fd)" d="M31.992 32v-0.001h0.008v-11.736c0-5.741-1.236-10.164-7.948-10.164-3.227 0-5.392 1.771-6.276 3.449h-0.093v-2.913h-6.364v21.364h6.627v-10.579c0-2.785 0.528-5.479 3.977-5.479 3.399 0 3.449 3.179 3.449 5.657v10.401h6.62z"></path>
<path fill="#f4f4fd" style="fill: var(--color3, #f4f4fd)" d="M0.528 10.636h6.635v21.364h-6.635v-21.364z"></path>
<path fill="#f4f4fd" style="fill: var(--color3, #f4f4fd)" d="M3.843-0c-2.121 0-3.843 1.721-3.843 3.843s1.721 3.879 3.843 3.879c2.121 0 3.843-1.757 3.843-3.879-0.001-2.121-1.723-3.843-3.843-3.843v0z"></path>
</symbol>
<symbol id="icon-twitter-11" viewBox="0 0 32 32">
<path fill="#f4f4fd" style="fill: var(--color3, #f4f4fd)" d="M32 6.078c-1.19 0.522-2.458 0.868-3.78 1.036 1.36-0.812 2.398-2.088 2.886-3.626-1.268 0.756-2.668 1.29-4.16 1.588-1.204-1.282-2.92-2.076-4.792-2.076-3.632 0-6.556 2.948-6.556 6.562 0 0.52 0.044 1.020 0.152 1.496-5.454-0.266-10.28-2.88-13.522-6.862-0.566 0.982-0.898 2.106-0.898 3.316 0 2.272 1.17 4.286 2.914 5.452-1.054-0.020-2.088-0.326-2.964-0.808 0 0.020 0 0.046 0 0.072 0 3.188 2.274 5.836 5.256 6.446-0.534 0.146-1.116 0.216-1.72 0.216-0.42 0-0.844-0.024-1.242-0.112 0.85 2.598 3.262 4.508 6.13 4.57-2.232 1.746-5.066 2.798-8.134 2.798-0.538 0-1.054-0.024-1.57-0.090 2.906 1.874 6.35 2.944 10.064 2.944 12.072 0 18.672-10 18.672-18.668 0-0.29-0.010-0.57-0.024-0.848 1.302-0.924 2.396-2.078 3.288-3.406z"></path>
</symbol>
<symbol id="icon-Icon-21" viewBox="0 0 75 32">
<path fill="#f4f4fd" style="fill: var(--color3, #f4f4fd)" d="M1.143 0h73.143c0.631 0 1.143 0.512 1.143 1.143v29.714c0 0.631-0.512 1.143-1.143 1.143h-73.143c-0.631 0-1.143-0.512-1.143-1.143v-29.714c0-0.631 0.512-1.143 1.143-1.143z"></path>
<path fill="#2e2f42" style="fill: var(--color1, #2e2f42)" d="M46.455 15.601c-0.001-4.83-3.917-8.745-8.747-8.744s-8.745 3.917-8.744 8.747c0.001 3.805 2.461 7.172 6.085 8.329 0.035 0.011 0.071 0.016 0.107 0.016 0.069-0 0.137-0.019 0.196-0.054 0.077-0.046 0.135-0.118 0.162-0.204l2.209-7c0.604-0.003 1.091-0.495 1.087-1.099s-0.495-1.091-1.099-1.088c-0.162 0.001-0.323 0.038-0.469 0.109l-2.918-2.918c-0.145-0.14-0.375-0.136-0.515 0.009-0.137 0.141-0.137 0.365 0 0.506l2.916 2.919c-0.224 0.457-0.096 1.008 0.306 1.319l-2.104 6.67c-4.159-1.532-6.288-6.145-4.756-10.304s6.145-6.288 10.304-4.756c4.159 1.532 6.288 6.145 4.756 10.304-0.749 2.032-2.286 3.675-4.264 4.556l-0.227-1.071c-0.041-0.197-0.235-0.323-0.432-0.281-0.062 0.013-0.12 0.042-0.167 0.085l-2.193 1.957c-0.151 0.134-0.164 0.364-0.030 0.514 0.044 0.049 0.099 0.085 0.162 0.105l2.799 0.893c0.191 0.061 0.397-0.044 0.458-0.235 0.019-0.061 0.023-0.125 0.010-0.187l-0.223-1.051c3.237-1.365 5.338-4.538 5.331-8.051zM37.71 15.236c0.201 0 0.365 0.163 0.365 0.364s-0.163 0.364-0.365 0.364-0.364-0.163-0.364-0.364c0-0.201 0.163-0.364 0.364-0.364zM38.91 23.73l1.248-1.113 0.345 1.623-1.593-0.51z"></path>
<path fill="#4d5ae5" style="fill: var(--color2, #4d5ae5)" d="M37.345 8.677v0.729c0 0.201 0.163 0.364 0.364 0.364s0.365-0.163 0.365-0.364v-0.729c0-0.201-0.163-0.364-0.365-0.364s-0.364 0.163-0.364 0.364z"></path>
<path fill="#4d5ae5" style="fill: var(--color2, #4d5ae5)" d="M30.786 15.236c-0.201 0-0.364 0.163-0.364 0.364s0.163 0.364 0.364 0.364h0.729c0.201 0 0.364-0.163 0.364-0.364s-0.163-0.364-0.364-0.364h-0.729z"></path>
<path fill="#4d5ae5" style="fill: var(--color2, #4d5ae5)" d="M44.633 15.965c0.201 0 0.365-0.163 0.365-0.364s-0.163-0.364-0.365-0.364h-0.729c-0.201 0-0.364 0.163-0.364 0.364s0.163 0.364 0.364 0.364h0.729z"></path>
</symbol>
</defs>
</svg>
